<?xml version="1.0" standalone="no"?>
<!DOCTYPE svg PUBLIC "-//W3C//DTD SVG 1.1//EN" "http://www.w3.org/Graphics/SVG/1.1/DTD/svg11.dtd" >
<svg>
<metadata>
Created by FontForge 20110222 at Mon Jun  2 06:22:31 2014
 By Orthosie Webhosting
Copyright (c) 1992 Miles Inc. All Rights Reserved.
</metadata>
<defs>
<font id="UniversCondensedBold" horiz-adv-x="982" >
  <font-face 
    font-family="UniversCondensedBold"
    font-weight="700"
    font-stretch="ultra-condensed"
    units-per-em="2048"
    panose-1="2 11 7 6 3 5 2 5 2 4"
    ascent="1638"
    descent="-410"
    x-height="982"
    cap-height="1410"
    bbox="-302 -512 1930 1939"
    underline-thickness="105"
    underline-position="-355"
    unicode-range="U+0020-F004"
  />
<missing-glyph horiz-adv-x="1020" 
d="M75 0v1457h870v-1457h-870zM331 256h358v945h-358v-945z" />
    <glyph glyph-name=".notdef" horiz-adv-x="1020" 
d="M75 0v1457h870v-1457h-870zM331 256h358v945h-358v-945z" />
    <glyph glyph-name=".null" horiz-adv-x="0" 
 />
    <glyph glyph-name="nonmarkingreturn" horiz-adv-x="453" 
 />
    <glyph glyph-name="space" unicode=" " horiz-adv-x="453" 
 />
    <glyph glyph-name="exclam" unicode="!" horiz-adv-x="604" 
d="M439 259v-259h-259v259h259zM439 1410l-31 -1019h-196l-32 1019h259z" />
    <glyph glyph-name="quotedbl" unicode="&#x22;" horiz-adv-x="831" 
d="M353 1410l-38 -465h-184l-38 465h260zM737 1410l-39 -465h-183l-38 465h260z" />
    <glyph glyph-name="numbersign" unicode="#" 
d="M22 548h140l100 334h-141l51 174h141l111 371h187l-111 -371h182l110 371h186l-110 -371h141l-51 -174h-141l-100 -334h143l-53 -174h-142l-129 -438h-190l133 438h-183l-130 -438h-187l130 438h-139zM349 548h182l100 334h-183z" />
    <glyph glyph-name="dollar" unicode="$" 
d="M412 537v-43l3 -58q8 -80 85 -78q85 0 89 107q1 80 -58 120q-36 21 -89 46q-143 65 -206 116q-85 69 -84 200q-1 201 205 257l27 7v243h222v-243l63 -11q130 -33 158 -163q9 -42 9 -94v-38h-265v35l-3 43q-8 75 -74 74q-74 -2 -77 -86q0 -67 35 -93q25 -20 67 -39
l129 -64q68 -37 114 -69q93 -68 92 -212q2 -237 -220 -284l-28 -6v-264h-222v264l-60 12q-70 16 -112 66q-53 57 -61 138q-5 33 -4 74v43h265z" />
    <glyph glyph-name="percent" unicode="%" horiz-adv-x="1360" 
d="M933 1459h155l-665 -1529h-155zM817 477l3 110q11 169 234 172q218 -3 232 -172l3 -110v-195q0 -117 -15 -168q-27 -87 -117 -110q-49 -14 -100 -13q-59 -1 -108 13q-90 23 -117 110q-16 50 -15 168v195zM983 281l1 -83q5 -89 70 -90q62 1 68 90l1 83v195l-1 79
q-1 86 -69 87q-63 -1 -69 -87l-1 -79v-195zM71 1153l2 110q11 169 234 172q219 -3 233 -172l3 -110v-195q0 -161 -36 -215q-53 -78 -197 -76q-59 -1 -108 13q-120 31 -128 166l-3 112v195zM237 958l1 -84q5 -90 70 -90q63 0 68 90l1 84v195l-1 78q-2 86 -69 87
q-63 -1 -69 -87l-1 -78v-195z" />
    <glyph glyph-name="ampersand" unicode="&#x26;" horiz-adv-x="1284" 
d="M270 869q-38 49 -59 102q-32 74 -32 150q-1 65 23 120q76 187 354 189q74 0 134 -16q88 -24 149.5 -97t62.5 -168q0 -102 -56 -185.5t-209 -185.5v0l267 -352v0l10 52q5 37 8 149l2 74v80h215v-94q-1 -256 -76 -395l-20 -34v0l200 -258h-293l-68 94v0l-50 -33
q-62 -40 -127 -59q-74 -23 -169 -22q-216 1 -330 110q-57 52 -88 129q-35 82 -35 173q2 234 199 358l55 33v0zM455 631v0l-46 -39q-79 -73 -79 -184q0 -146 112 -213q56 -36 130 -35q50 -1 91 16q32 13 77 40l28 17v0zM535 923v0l43 38q78 76 77 163q0 54 -30 87
q-35 39 -83 39q-45 1 -85 -38q-32 -32 -31 -87q2 -91 109 -202v0z" />
    <glyph glyph-name="quotesingle" unicode="'" horiz-adv-x="453" 
d="M354 1410l-38 -465h-184l-38 465h260z" />
    <glyph glyph-name="parenleft" unicode="(" horiz-adv-x="453" 
d="M187 12q-49 169 -70 301q-26 152 -25 308q1 329 109 649l51 140h178l-51 -161q-85 -306 -84 -625q-1 -139 19 -298q21 -191 64 -349l48 -166h-178z" />
    <glyph glyph-name="parenright" unicode=")" horiz-adv-x="453" 
d="M49 -189l48 166q42 159 64 349q19 159 19 300q0 167 -26 343q-22 148 -59 280l-50 161h178l51 -140q107 -320 109 -649q0 -156 -25 -308q-22 -132 -70 -301l-61 -201h-178z" />
    <glyph glyph-name="asterisk" unicode="*" 
d="M405 1171l-140 182l145 85l83 -204v0l81 204l146 -85l-140 -182l232 30v-167l-232 30l140 -182l-146 -85l-81 204v0l-83 -204l-145 85l140 182l-232 -30v167z" />
    <glyph glyph-name="plus" unicode="+" horiz-adv-x="1360" 
d="M1146 455h-394v-394h-147v394h-394v147h394v394h147v-394h394v-147z" />
    <glyph glyph-name="comma" unicode="," horiz-adv-x="453" 
d="M126 269h256l-133 -458h-179z" />
    <glyph glyph-name="hyphen" unicode="-" horiz-adv-x="453" 
d="M77 599h298v-190h-298v190z" />
    <glyph glyph-name="period" unicode="." horiz-adv-x="453" 
d="M356 259v-259h-259v259h259z" />
    <glyph glyph-name="slash" unicode="/" horiz-adv-x="453" 
d="M235 1412h180l-177 -1601h-180z" />
    <glyph glyph-name="zero" unicode="0" 
d="M105 958l3 151q11 237 201 293q82 25 173 25q180 -1 276 -66q107 -72 116 -252l3 -151v-509l-3 -152q-17 -319 -374 -317q-185 1 -277 64q-106 72 -115 253l-3 152v509zM370 445l3 -109q3 -92 19 -118q28 -47 105 -47q69 -1 96 51q15 28 17 114l2 109v517l-2 109
q-1 87 -19 116q-30 48 -103 49q-69 0 -98 -52q-16 -28 -17 -113l-3 -109v-517z" />
    <glyph glyph-name="one" unicode="1" 
d="M223 1186l50 33q102 71 141 137l28 51h246v-1407h-265v1113l-23 -27q-27 -30 -57 -55q-46 -40 -92 -60l-28 -12v227z" />
    <glyph glyph-name="two" unicode="2" 
d="M123 239l100 130q130 173 237 340q74 116 103 180q39 88 39 203q0 37 -5 65q-13 77 -97 79q-96 -1 -101 -115l-1 -68v-40h-265v48q2 209 86 282q94 81 289 84q84 0 158 -19q200 -51 201 -333q0 -207 -115 -390q-86 -136 -248 -329l-149 -165v0h525v-191h-757v239z" />
    <glyph glyph-name="three" unicode="3" 
d="M379 377v-41l1 -42q3 -124 105 -123q107 -1 111 141l1 70v63q0 42 -4 79q-5 47 -26 77q-33 44 -135 44h-80v191h73q117 -3 154 56q17 28 18 68v63v86q0 129 -102 127q-105 -2 -104 -123v-45h-265v35q-1 59 12 115q32 153 175 188q84 21 176 21q96 0 169 -15
q151 -32 188 -191q15 -67 16 -126v-54q-1 -226 -115 -277l-52 -21v0q153 -38 165 -212l2 -87v-62q-1 -114 -8 -161q-13 -90 -65 -144q-92 -97 -298 -97q-82 -1 -156 16q-81 16 -132.5 59t-68.5 110q-16 51 -18 114l-2 54v44h265z" />
    <glyph glyph-name="four" unicode="4" 
d="M63 585l356 822h377v-910h153v-191h-153v-306h-265v306h-468v279zM249 497v0h283v665v0z" />
    <glyph glyph-name="five" unicode="5" 
d="M386 358l2 -42l1 -37q7 -110 106 -108q114 -2 121 128l2 63v191l-2 64q0 130 -103 128q-105 -1 -115 -114l-3 -56v-26h-270l4 148l3 218l5 254v238h709v-191h-456v-364q88 80 225 84q247 -4 264 -242q4 -57 4 -144v-192q-1 -316 -221 -362q-75 -17 -165 -16
q-174 0 -255 48q-108 64 -118 222l-3 67v41h265z" />
    <glyph glyph-name="six" unicode="6" 
d="M379 853q54 39 85 52q61 28 134 28q212 0 255 -176q20 -85 21 -194v-140q-2 -241 -70 -328q-87 -113 -308 -115q-168 -1 -257 58q-98 64 -116 230q-10 77 -9 154v581q1 234 81 319q96 102 312 105q362 -5 358 -323v-41h-265v42q-4 132 -109 131q-69 -2 -95 -49
q-16 -30 -17 -109v-73v-152v0zM379 419l2 -104q3 -148 123 -144q106 -3 105 144v104v142v64q-1 118 -109 117q-112 2 -119 -117l-2 -64v-142z" />
    <glyph glyph-name="seven" unicode="7" 
d="M106 1407h747v-207l-347 -1200h-295l387 1216v0h-492v191z" />
    <glyph glyph-name="eight" unicode="8" 
d="M328 732q-178 44 -202 160q-12 47 -11 124v69q-1 64 9 119q26 161 188 202q84 21 176 21q201 -1 282 -71q94 -80 96 -271v-80q-3 -198 -122 -246q-36 -16 -85 -28v0q131 -18 174 -102q38 -73 40 -206v-87q-3 -205 -88 -278q-92 -79 -284 -78q-207 -2 -297 71
q-95 78 -94 285v87q1 149 36 208q47 78 182 101v0v0zM375 355l2 -75q3 -63 27 -86t87 -23q114 1 116 99l1 85v123l-5 68q-5 57 -31 73.5t-83 17.5q-103 0 -112 -104l-2 -55v-123zM380 1003l3 -76q6 -102 112 -99q94 2 103 94l3 81v92l-4 52q-6 91 -106 89q-98 -2 -108 -87
l-3 -54v-92z" />
    <glyph glyph-name="nine" unicode="9" 
d="M376 371v-52l1 -53q2 -98 115 -95q70 -1 94 46q14 27 18 110l2 58v220l-22 -21q-73 -57 -202 -55q-166 -1 -226 105q-41 75 -43 256v159q0 304 214 357q82 21 171 21q203 -2 286 -89q87 -91 87 -289v-662q0 -77 -13 -148q-17 -96 -67 -155q-86 -104 -311 -104
q-191 -3 -279 70.5t-90 270.5v50h265zM378 891l2 -50q6 -122 111 -121q110 -1 114 120l1 51v161l-1 60q-4 121 -119 124q-98 2 -106 -131l-2 -53v-161z" />
    <glyph glyph-name="colon" unicode=":" horiz-adv-x="453" 
d="M356 259v-259h-259v259h259zM356 982v-259h-259v259h259z" />
    <glyph glyph-name="semicolon" unicode=";" horiz-adv-x="453" 
d="M126 269h256l-133 -458h-179zM370 982v-259h-259v259h259z" />
    <glyph glyph-name="less" unicode="&#x3c;" horiz-adv-x="2039" 
d="M407 548v150l1225 551v-196l-973 -432v0l973 -425v-196z" />
    <glyph glyph-name="equal" unicode="=" horiz-adv-x="1360" 
d="M1144 440v-147h-932v147h932zM1144 761v-147h-932v147h932z" />
    <glyph glyph-name="greater" unicode="&#x3e;" horiz-adv-x="2039" 
d="M1631 701v-150l-1225 -551v196l974 432v0l-974 425v196z" />
    <glyph glyph-name="question" unicode="?" horiz-adv-x="906" 
d="M561 259v-259h-259v259h259zM98 1113q-1 54 5 95q27 219 340 222q171 0 249 -63q89 -72 91 -237q0 -66 -12 -117q-20 -85 -77 -178l-76 -124l-45 -74q-28 -48 -34 -101l-2 -58v-87h-211v87v58q2 92 15 138q7 26 59 126l65 122q58 110 59 207l-3 50q-13 79 -76 77
q-90 1 -88 -125v-62h-259v44z" />
    <glyph glyph-name="at" unicode="@" horiz-adv-x="1360" 
d="M976 997v-592q0 -31 2 -59q2 -40 36 -37q62 1 59 96v363q1 255 -60 351q-84 134 -318 134q-242 -2 -332 -114q-47 -57 -61 -124q-25 -111 -25 -248v-417q-1 -115 24 -212q51 -215 359 -216q82 -1 163 16l153 35v-194l-68 -13q-108 -19 -257 -18q-320 1 -456 136
q-131 132 -135 460v424q-1 92 10 185q40 364 346 441q129 33 270 33q167 0 307 -42q200 -59 261 -247q37 -111 36 -371v-297q-1 -178 -47 -243q-65 -94 -222 -93q-183 -2 -208 129l-22 -35q-60 -87 -188 -88q-133 0 -189 94q-41 68 -39 217v262q2 302 205 300
q110 -1 179 -103v87h217zM592 452l1 -57q5 -81 71 -80q64 -4 77 76l4 60v263l-1 33q-8 91 -78 91q-66 0 -73 -95l-1 -29v-262z" />
    <glyph glyph-name="A" unicode="A" horiz-adv-x="1133" 
d="M413 307v0l-56 -307h-282l318 1410h345l318 -1410h-282l-57 307v0h-304zM679 519v0l-114 630v0l-115 -630v0h229z" />
    <glyph glyph-name="B" unicode="B" horiz-adv-x="1095" 
d="M130 1410h410q98 0 159 -4q279 -19 280 -368q0 -245 -190 -301l-76 -18v0l75 -12q210 -43 209 -321q0 -96 -18 -170q-44 -185 -277 -207q-90 -10 -195 -9h-377v1410zM417 212h71q41 -1 81 4q85 7 115 57q24 40 26 131q1 136 -53 182q-30 23 -85 27l-82 2h-73v-403z
M417 1198v-371h59q127 -1 171 34q45 35 45 148q0 99 -42 144.5t-146 44.5h-87z" />
    <glyph glyph-name="C" unicode="C" horiz-adv-x="1058" 
d="M978 436q-3 -177 -39 -265q-52 -126 -198 -166q-90 -26 -184 -25q-259 1 -348 124q-71 92 -83 228q-12 111 -11 261v232q-1 147 8 251q9 135 69 215q100 138 360 139q218 0 319 -100q97 -97 98 -319v-51h-287v42l-3 57q-8 80 -28 110q-32 47 -99 49q-115 2 -139 -149
q-12 -72 -11 -226v-242q-1 -85 5 -182q10 -227 143 -227q128 -2 139 175l2 61v53h287v-45z" />
    <glyph glyph-name="D" unicode="D" horiz-adv-x="1133" 
d="M493 1410q182 -1 278 -36q143 -52 193 -191q27 -76 35 -166q6 -78 7 -174v-315q-3 -436 -238 -499q-104 -29 -275 -29h-375v1410h375zM405 212h78q120 0 166 40q59 49 66 158q4 54 4 119v313q-1 190 -28 255q-42 100 -220 101h-66v-986z" />
    <glyph glyph-name="E" unicode="E" horiz-adv-x="944" 
d="M841 1410v-212h-418v-368h403v-212h-403v-406h430v-212h-717v1410h705z" />
    <glyph glyph-name="F" unicode="F" horiz-adv-x="906" 
d="M812 1410v-212h-391v-379h370v-212h-370v-607h-287v1410h678z" />
    <glyph glyph-name="G" unicode="G" horiz-adv-x="1133" 
d="M721 1026q0 47 -8 85q-21 107 -140 107q-128 0 -151 -142q-12 -75 -11 -229v-240l4 -192q2 -110 32 -157q41 -65 141 -66q37 0 74 8l59 16v320h-136v212h423v-714q-287 -55 -445 -54q-108 0 -196 26q-172 49 -219 250q-25 103 -24 350v241q-1 141 20 260q52 319 443 323
q101 0 189 -23q179 -47 219 -245q13 -64 13 -125v-60h-287v49z" />
    <glyph glyph-name="H" unicode="H" horiz-adv-x="1133" 
d="M425 1410v-566h282v566h287v-1410h-287v632h-282v-632h-287v1410h287z" />
    <glyph glyph-name="I" unicode="I" horiz-adv-x="529" 
d="M411 1410v-1410h-287v1410h287z" />
    <glyph glyph-name="J" unicode="J" 
d="M351 469v-58l3 -113q10 -108 106 -106q73 -1 92 68q10 36 10 127v76v947h287v-944l-4 -146q-5 -86 -24 -145q-21 -68 -77 -112t-116 -59q-89 -25 -185 -24q-247 1 -325 139q-43 72 -49 160q-6 58 -5 133v57h287z" />
    <glyph glyph-name="K" unicode="K" horiz-adv-x="1095" 
d="M428 1410v-1410h-287v1410h287zM738 1410h310l-309 -629l318 -781h-315l-314 761z" />
    <glyph glyph-name="L" unicode="L" horiz-adv-x="868" 
d="M141 1410h287v-1198h371v-212h-658v1410z" />
    <glyph glyph-name="M" unicode="M" horiz-adv-x="1511" 
d="M533 1410l223 -1064v0l222 1064h408v-1410h-237v1208v0l-250 -1208h-287l-250 1208v0v-1208h-237v1410h408z" />
    <glyph glyph-name="N" unicode="N" horiz-adv-x="1171" 
d="M553 1410l250 -1211v0v1211h237v-1410h-424l-250 1208v0v-1208h-237v1410h424z" />
    <glyph glyph-name="O" unicode="O" horiz-adv-x="1133" 
d="M125 881q0 177 5 241q7 105 73 178q68 77 169 105q91 25 188 25q269 -2 370 -130q66 -83 73 -178q4 -64 5 -241v-352q-1 -296 -72 -402q-98 -146 -369 -147q-193 0 -305.5 78t-128.5 279q-9 89 -8 192v352zM412 530l3 -140q7 -198 152 -198q105 1 133 92q15 47 18 106
l3 140v350l-3 140q-8 198 -156 198q-141 2 -147 -198l-3 -140v-350z" />
    <glyph glyph-name="P" unicode="P" horiz-adv-x="1058" 
d="M411 1410h122q256 -1 341 -79q109 -101 110 -330q1 -187 -50 -282q-65 -120 -238 -144q-84 -13 -184 -12h-99v-563h-287v1410h285zM413 1198v-423h78q41 -1 76 4q106 10 122 102q8 44 8 106q0 52 -9 99q-18 100 -123 109l-74 3h-78z" />
    <glyph glyph-name="Q" unicode="Q" horiz-adv-x="1171" 
d="M1102 0h-187l-73 -2l-94 -10q-75 -9 -162 -8q-232 0 -327 70q-114 84 -120 306q-5 106 -4 240v256q-1 317 61 417q101 160 376 161q294 -1 386 -158q44 -77 52 -210q5 -84 6 -218v-241l-4 -123q-12 -182 -87 -260l-43 -40l220 10v-190zM422 570l2 -161q4 -218 145 -217
q46 0 83 26q57 40 69 165q8 76 8 187v261l-2 165q-5 103 -25 147q-32 73 -118 75q-150 -1 -158 -221q-5 -75 -4 -166v-261z" />
    <glyph glyph-name="R" unicode="R" horiz-adv-x="1058" 
d="M519 1410q232 -2 322 -71q115 -87 117 -302q0 -84 -19 -157q-32 -124 -139 -167q-32 -14 -74 -25v0q51 -11 89 -24q146 -49 145 -273v-232q-1 -46 2.5 -76t17.5 -83h-289l-11 71q-8 52 -7 88v232q-1 155 -107 177q-35 6 -71 7h-87v-575h-287v1410h398zM408 1198v-411h87
q92 1 135 42q39 39 41 165q0 48 -9 93q-19 93 -105 106q-29 5 -64 5h-85z" />
    <glyph glyph-name="S" unicode="S" horiz-adv-x="1095" 
d="M388 445v-52q-4 -200 153 -201q128 -1 155 112q8 30 8 64q0 47 -18 81q-16 28 -47 53l-43 29l-242 142q-66 38 -117 81q-62 51 -87 109q-31 70 -31 171q0 395 439 396q359 0 404 -253q12 -67 12 -141v-59h-287v47q-1 45 -6 86q-13 109 -132 108q-138 2 -143 -152
q-1 -56 20 -88q19 -29 69 -65l60 -39l238 -141q47 -29 88 -63q58 -51 81 -106q29 -71 29 -174q1 -307 -237 -379q-100 -32 -219 -31q-113 -1 -210 28q-184 52 -213 239q-12 66 -11 148v50h287z" />
    <glyph glyph-name="T" unicode="T" horiz-adv-x="1020" 
d="M59 1410h901v-212h-307v-1198h-287v1198h-307v212z" />
    <glyph glyph-name="U" unicode="U" horiz-adv-x="1133" 
d="M416 1410v-922l2 -106q1 -95 24 -133q35 -56 118 -57q87 -2 124 53q27 39 28 137l2 106v922h287v-915q-1 -287 -82 -387q-57 -72 -149.5 -100.5t-195.5 -27.5q-118 0 -214 29q-145 41 -201 196q-30 86 -30 290v915h287z" />
    <glyph glyph-name="V" unicode="V" horiz-adv-x="1058" 
d="M341 1410l195 -1101v0l191 1101h278l-303 -1410h-345l-303 1410h287z" />
    <glyph glyph-name="W" unicode="W" horiz-adv-x="1586" 
d="M309 1410l152 -1075v0l184 1075h294l196 -1078v0l156 1078h244l-237 -1410h-331l-188 1025v0l-162 -1025h-331l-237 1410h260z" />
    <glyph glyph-name="X" unicode="X" horiz-adv-x="1133" 
d="M370 1410l188 -459v0l183 459h281l-304 -678v0l321 -732h-290l-205 494v0l-214 -494h-284l329 728v0l-299 682h294z" />
    <glyph glyph-name="Y" unicode="Y" horiz-adv-x="1058" 
d="M365 1410l162 -573v0l180 573h297l-332 -878v-532h-287v532l-332 878h312z" />
    <glyph glyph-name="Z" unicode="Z" horiz-adv-x="944" 
d="M589 1198v0h-503v212h780v-267l-526 -931v0h539v-212h-813v267z" />
    <glyph glyph-name="bracketleft" unicode="[" horiz-adv-x="453" 
d="M91 1410h302v-136h-97v-1327h97v-136h-302v1599z" />
    <glyph glyph-name="backslash" unicode="\" horiz-adv-x="453" 
d="M243 1412l170 -1601h-181l-170 1601h181z" />
    <glyph glyph-name="bracketright" unicode="]" horiz-adv-x="453" 
d="M60 -189v136h97v1327h-97v136h302v-1599h-302z" />
    <glyph glyph-name="asciicircum" unicode="^" horiz-adv-x="1020" 
d="M456 1209q-125 -113 -290 -189l-69 -27v94l78 62q182 157 268 353l14 34h105l13 -33q85 -195 269 -354l78 -62v-94l-68 27q-61 26 -144 80q-94 60 -147 109q-19 16 -53 53v0z" />
    <glyph glyph-name="underscore" unicode="_" horiz-adv-x="1020" 
d="M1024 -407v-105h-1024v105h1024z" />
    <glyph glyph-name="grave" unicode="`" 
d="M566 1421l109 -317h-222l-184 317h297z" />
    <glyph glyph-name="a" unicode="a" horiz-adv-x="906" 
d="M100 727q4 274 349 275q174 1 260.5 -68t90.5 -249v-79v-606h-256v87l-39 -42q-71 -64 -196 -65q-236 -5 -233 281q-3 211 91 284q88 69 297 72h77v67l-1 49q0 118 -85 116q-100 -1 -96 -115v-36h-259v29zM541 464h-31q-103 -2 -138.5 -45t-36.5 -143l3 -52
q13 -91 87 -91q82 3 103 96q5 27 9 60l4 71v104z" />
    <glyph glyph-name="b" unicode="b" horiz-adv-x="906" 
d="M347 1412v-512l40 38q74 62 188 64q238 1 237 -325v-77v-249v-61q-1 -65 -11 -121q-32 -187 -240 -189q-104 -2 -176 56l-45 40v-76h-252v1412h259zM347 367l2 -64q0 -42 9 -73q17 -76 92 -76q77 -2 93 79q8 35 9 84l1 54v213l-2 90q-7 155 -96 154q-72 1 -92 -70
q-11 -38 -13 -90l-3 -82v-219z" />
    <glyph glyph-name="c" unicode="c" horiz-adv-x="831" 
d="M501 626v65q2 138 -84 137q-74 -2 -77 -109l-2 -96v-252l3 -109q-1 -106 73 -108q77 1 84 75l3 69v70h259v-62l-1 -50q-10 -275 -347 -276q-308 2 -327 282l-6 107v256q1 201 74 280q87 96 273 97q82 0 150 -20q52 -16 94 -55q69 -64 85 -187l5 -67v-47h-259z" />
    <glyph glyph-name="d" unicode="d" horiz-adv-x="906" 
d="M813 1412v-1412h-248v93l-15 -20q-17 -21 -44 -40q-69 -52 -161 -53q-56 -1 -105 17q-127 42 -143 199l-6 82l-2 100v252q-1 65 5 126q21 246 234 246q52 0 104 -17q45 -15 80 -40l42 -35v502h259zM348 396v-79q3 -162 103 -163q79 2 94 96q7 41 9 149v222l-3 74
q-4 38 -12 68q-20 63 -92 65q-95 -3 -98 -146l-1 -68v-218z" />
    <glyph glyph-name="e" unicode="e" horiz-adv-x="868" 
d="M331 335l1 -73q0 -127 99 -129q91 1 102 108l4 60v32h259v-42q0 -35 -6 -71q-43 -241 -361 -240q-139 0 -227 47q-95 51 -118 192q-13 70 -12 143v200q-1 60 5 124q14 171 97.5 242.5t252.5 73.5q222 -2 297 -97q69 -88 72 -310v-153h-465v-107zM331 595h206v80l-2 72
q-10 99 -99 102q-88 2 -101 -111l-4 -63v-80z" />
    <glyph glyph-name="f" unicode="f" horiz-adv-x="642" 
d="M183 982v114v79q5 145 60 195q61 55 199 54l100 -4l49 -3v-167h-51q-94 1 -97 -92l-1 -60v-116h147v-174h-147v-808h-259v808h-136v174h136z" />
    <glyph glyph-name="g" unicode="g" horiz-adv-x="906" 
d="M812 -31q0 -82 -17 -153q-35 -143 -176 -181q-84 -24 -179 -23q-151 -2 -244 49q-102 56 -101 216v38h259v-22q-4 -131 89 -132q74 -2 87 76q8 46 9 128v140l-42 -44q-68 -62 -175 -61q-186 -1 -218 166q-11 48 -13 107l-3 91v252v79q13 306 249 307q63 0 117 -27
q32 -16 55 -38l44 -49v94h259v-1013zM347 368l2 -56q5 -137 89 -138q68 -2 86 66q7 27 11 65l4 57v256l-4 65q-3 50 -12 83q-17 61 -79 62q-83 2 -94 -135l-3 -75v-250z" />
    <glyph glyph-name="h" unicode="h" horiz-adv-x="944" 
d="M369 1412v-511l39 35q81 66 185 66q122 -1 184 -83q33 -43 43 -89q13 -61 14 -134v-83v-613h-259v617v51l-2 65q-5 96 -89 95q-86 1 -107 -107q-5 -30 -7 -64l-1 -42v-615h-259v1412h259z" />
    <glyph glyph-name="i" unicode="i" horiz-adv-x="491" 
d="M116 982h259v-982h-259v982zM375 1412v-240h-259v240h259z" />
    <glyph glyph-name="j" unicode="j" horiz-adv-x="491" 
d="M22 -214q53 1 70.5 22t23.5 73l2 46v72v983h259v-983v-82q-1 -63 -6 -113q-19 -190 -252 -192l-83 3l-46 4v167h32zM377 1412v-240h-259v240h259z" />
    <glyph glyph-name="k" unicode="k" horiz-adv-x="906" 
d="M392 1412v-1412h-259v1412h259zM584 982h275l-194 -426l205 -556h-273l-205 541z" />
    <glyph glyph-name="l" unicode="l" horiz-adv-x="491" 
d="M375 1412v-1412h-259v1412h259z" />
    <glyph glyph-name="m" unicode="m" horiz-adv-x="1360" 
d="M325 982v-98l24 34q22 27 65 49q60 33 152 35q47 0 91 -12q70 -18 111 -84l18 -34l29 46q60 80 213 84q224 -3 244 -245l2 -117v-640h-259v644l-1 59q-5 124 -93 125q-103 -4 -111 -140l-1 -46v-642h-259v644l-1 32l-2 51q-10 100 -95 101q-98 -4 -106 -142l-2 -44v-642
h-259v982h240z" />
    <glyph glyph-name="n" unicode="n" horiz-adv-x="944" 
d="M363 982v-94l47 47q36 32 86 49.5t102 17.5q238 3 234 -272v-96v-634h-259v638v53l-2 60q-11 74 -90 77q-106 0 -112 -140l-2 -51v-637h-259v982h255z" />
    <glyph glyph-name="o" unicode="o" horiz-adv-x="906" 
d="M815 405l-1 -84q-7 -176 -77 -246q-52 -55 -123 -74q-75 -22 -154 -21q-187 1 -274.5 77.5t-93.5 263.5l-1 84v173l1 84q6 184 90 259q93 82 266 81q185 -2 272 -78t94 -262l1 -84v-173zM350 365v-49l2 -68q9 -115 105 -115q86 -3 96 115l3 68v49v251v50l-3 68
q-9 113 -100 115q-93 -2 -101 -115l-2 -68v-50v-251z" />
    <glyph glyph-name="p" unicode="p" horiz-adv-x="906" 
d="M341 982v-82l43 41q65 59 173 61q162 -1 218 -114q36 -72 37 -254v-249q0 -199 -26 -268q-52 -135 -210 -137q-53 -1 -102 16q-45 14 -77 37l-50 39v-460h-259v1370h253zM347 388l2 -76q2 -50 10 -84q16 -75 97 -74q89 -2 95 156l2 80v212l-3 97q-13 130 -97 129
q-62 0 -84 -52q-13 -32 -17 -75q-6 -51 -5 -96v-217z" />
    <glyph glyph-name="q" unicode="q" horiz-adv-x="906" 
d="M812 982v-1370h-259v458l-49 -37q-73 -53 -178 -53q-51 -2 -92 13q-135 42 -144 278l-2 92v262l3 114q14 265 249 263q127 1 220 -106v86h252zM347 381l2 -64q1 -46 9 -82q15 -83 88 -81q77 -1 95 79q6 33 9 82l3 61v236l-3 66q-3 43 -9 75q-17 73 -91 75
q-96 -3 -101 -156l-2 -62v-229z" />
    <glyph glyph-name="r" unicode="r" horiz-adv-x="680" 
d="M352 982v-132l17 31q62 103 195 117l58 4v-223l-23 3l-41 2q-158 3 -180 -115q-9 -34 -9 -79l-2 -59v-531h-259v982h244z" />
    <glyph glyph-name="s" unicode="s" horiz-adv-x="831" 
d="M317 326v-49q1 -75 12 -97q23 -47 81 -47q101 1 99 117q-1 25 -6 46q-15 51 -82 86l-107 54l-108 54q-45 22 -75 55q-68 70 -67 179q1 215 196 261q72 17 149 17q341 0 340 -282v-35h-259v57q2 106 -82 107q-83 2 -85 -92q0 -37 13 -62q14 -28 38 -43q36 -25 106 -54
q128 -57 205 -116q39 -33 59 -81q24 -59 24 -125q0 -74 -23 -131q-62 -165 -336 -165q-350 -2 -351 271v75h259z" />
    <glyph glyph-name="t" unicode="t" horiz-adv-x="642" 
d="M156 982v160l259 108v-268h149v-174h-149v-514v-43q1 -55 19 -76.5t73 -20.5l50 6l23 4v-174l-59 -6q-47 -5 -95 -4q-72 -1 -130 16q-138 36 -140 231v68v513h-136v174h136z" />
    <glyph glyph-name="u" unicode="u" horiz-adv-x="944" 
d="M369 982v-664l2 -63q3 -103 92 -101q65 -1 92 57q19 44 20 107v664h259v-982h-244v92l-38 -35q-93 -79 -201 -77q-238 4 -241 277v63v662h259z" />
    <glyph glyph-name="v" unicode="v" horiz-adv-x="906" 
d="M314 982l140 -739v0l138 739h261l-232 -982h-336l-232 982h261z" />
    <glyph glyph-name="w" unicode="w" horiz-adv-x="1435" 
d="M288 982l115 -788v0l146 788h336l151 -788v0l113 788h256l-197 -982h-336l-147 761v0l-163 -761h-336l-197 982h259z" />
    <glyph glyph-name="x" unicode="x" horiz-adv-x="906" 
d="M301 506v0l-227 476h259l126 -292v0l141 292h251l-251 -476v0l251 -506h-251l-141 316v0l-158 -316h-251z" />
    <glyph glyph-name="y" unicode="y" horiz-adv-x="906" 
d="M311 982l149 -608v0l144 608h257l-359 -1346h-247l87 360v0l-290 986h259z" />
    <glyph glyph-name="z" unicode="z" horiz-adv-x="755" 
d="M429 808v0h-336v174h586v-208l-362 -600v0h373v-174h-625v226z" />
    <glyph glyph-name="braceleft" unicode="{" horiz-adv-x="1020" 
d="M159 646q166 31 208 124q35 78 37 250v208q0 174 97 259q82 72 271 76l125 2v-191l-98 -4q-86 -4 -119 -36t-31 -122v-190q-2 -191 -33 -269q-48 -122 -172 -202v0q108 -75 147 -150q56 -105 58 -326v-192q1 -92 30 -123q32 -34 120 -37l98 -4v-191l-125 2
q-265 6 -329 150q-40 83 -39 188v209q-2 170 -37 251q-42 97 -208 127v191z" />
    <glyph glyph-name="bar" unicode="|" horiz-adv-x="1020" 
d="M562 1536v-2048h-105v2048h105z" />
    <glyph glyph-name="braceright" unicode="}" horiz-adv-x="1020" 
d="M782 437q-112 -34 -145 -146q-23 -79 -23 -214v-209q0 -242 -162 -302q-89 -35 -206 -36l-125 -2v191l98 4q84 2 119 37q31 31 31 123v192q-1 107 8 175q8 75 49 151t148 150v0q-125 80 -173 202q-31 80 -32 269v190q-2 92 -31 121q-32 33 -119 37l-98 4v191l125 -2
q188 -5 271 -75q98 -84 97 -260v-208q1 -171 36 -251q41 -92 209 -123v-191z" />
    <glyph glyph-name="asciitilde" unicode="~" horiz-adv-x="2039" 
d="M410 521q87 131 174 172q79 38 179 38q101 0 262 -75.5t260 -74.5q120 -2 224 86l31 28l125 -95q-52 -61 -92 -97q-56 -53 -136 -80q-67 -25 -138 -24q-99 -1 -190 36l-126 53q-142 60 -226 61q-156 -3 -245 -148l-132 72z" />
    <glyph glyph-name="nonbreakingspace" unicode="&#xa0;" horiz-adv-x="453" 
 />
    <glyph glyph-name="exclamdown" unicode="&#xa1;" horiz-adv-x="604" 
d="M211 591h198l30 -1019h-259zM439 982v-259h-259v259h259z" />
    <glyph glyph-name="cent" unicode="&#xa2;" 
d="M394 204q-43 9 -71 21q-131 48 -151 210q-10 66 -9 149v266q0 270 148 332q34 15 83 29v243h222v-243q105 -14 152 -64q52 -55 69 -151q10 -58 10 -101v-47h-265v39l-2 42q-6 130 -77 128q-72 2 -74 -134l-1 -69v-269l2 -106q7 -121 74 -121q76 -1 78 123v60v45h265v-50
l-3 -73q-18 -192 -166 -242l-62 -17v-264h-222v264z" />
    <glyph glyph-name="sterling" unicode="&#xa3;" 
d="M205 855v192l2 94q15 286 318 286q183 -2 257 -80q69 -72 72 -259v-54h-265v56v42q-4 91 -65 92q-59 -2 -62 -78l-1 -48v-55v-188h205v-191h-196v-473h384v-191h-732v191h83v473h-83v191h83z" />
    <glyph glyph-name="currency" unicode="&#xa4;" 
d="M81 1230l133 -130v0l48 26q114 58 238 59q120 -1 224 -57l46 -28v0l133 130l129 -132l-136 -131v0l24 -41q55 -105 56 -229q-1 -120 -51 -212l-29 -47v0l136 -132l-129 -129l-132 127v0l-72 -41q-95 -47 -206 -46q-112 0 -207 46l-73 41v0l-132 -127l-131 129l135 132v0
l-30 54q-48 95 -47 204q-1 110 48 213l29 58v0l-135 131zM212 701q-1 -75 35.5 -140t103.5 -103t141 -37q117 1 197.5 81.5t82.5 198.5q-2 117 -82.5 197.5t-197.5 82.5q-74 0 -141 -38t-103.5 -103t-35.5 -139z" />
    <glyph glyph-name="yen" unicode="&#xa5;" 
d="M129 270h229v93h-229v93h229v77l-322 874h307l162 -579v0l171 579h291l-322 -874v-77h229v-93h-229v-93h229v-93h-229v-177h-287v177h-229v93z" />
    <glyph glyph-name="brokenbar" unicode="&#xa6;" horiz-adv-x="1020" 
d="M457 -460v919h105v-919h-105zM562 1483v-919h-105v919h105z" />
    <glyph glyph-name="section" unicode="&#xa7;" 
d="M306 140q78 -13 137 -13q180 1 177 107q-2 54 -81 99l-65 36l-135 60q-64 29 -108.5 67t-62.5 93q-18 47 -17 102q0 196 171 232l49 9v0q-126 63 -162 140q-24 47 -23 107q1 91 55 156t140 87q62 16 137 16q102 -2 230 -34v-174l-101 22q-62 11 -117 12q-136 0 -138 -91
q1 -50 64 -87q42 -26 71 -40l108 -50q50 -23 92 -59q53 -46 76 -102q17 -45 18 -101q1 -189 -201 -237v0q42 -13 70 -26q45 -21 80 -62q53 -63 56 -160q-1 -155 -117 -233q-97 -65 -259 -63q-91 0 -167 14l-96 22v174zM477 853l-29 -8q-91 -33 -91 -128q1 -61 48 -99
q24 -23 55 -36l36 -15l29 11q92 49 90 128q-1 64 -61 111q-24 16 -49 27z" />
    <glyph glyph-name="dieresis" unicode="&#xa8;" 
d="M214 1417h231v-231h-231v231zM549 1417h231v-231h-231v231z" />
    <glyph glyph-name="copyright" unicode="&#xa9;" horiz-adv-x="1020" 
d="M130 1286q61 111 173.5 175.5t240.5 64.5t240 -64t176 -176t64 -240q0 -129 -64 -241t-175 -176t-239 -63q-198 -1 -339 138t-141 342q0 124 64 240zM137 1047q-1 -106 55 -205q52 -95 148 -150t205 -55q169 -1 288 120t120 290q-1 168 -120.5 287.5t-287.5 120.5
q-169 -1 -288 -119t-120 -289zM766 867l-18 -16q-82 -66 -179 -66q-113 0 -189.5 81t-76.5 194q-1 109 74.5 191t187.5 83q95 0 173 -59l21 -17l-61 -63l-24 23q-48 39 -108 41q-80 -1 -134.5 -60.5t-53.5 -140.5q-1 -80 52 -139t132 -59q66 -1 115 43l28 27z" />
    <glyph glyph-name="ordfeminine" unicode="&#xaa;" horiz-adv-x="831" 
d="M160 1267q16 158 238 160q132 1 200 -50q63 -47 62 -193v-403h-160v100q-67 -113 -187 -114q-170 0 -170 189q-2 103 41 153t148 64q59 7 105 7h45v48l-1 34q-4 61 -68 59q-74 -4 -76 -68l-1 -24h-178zM482 1074h-32q-127 3 -129 -99q1 -78 69 -81q52 0 77 51q8 18 12 41
l3 38v50z" />
    <glyph glyph-name="guillemotleft" unicode="&#xab;" horiz-adv-x="906" 
d="M224 860h223l-142 -368l142 -368h-203l-177 368zM622 860h213l-145 -368l145 -368h-204l-176 368z" />
    <glyph glyph-name="logicalnot" unicode="&#xac;" horiz-adv-x="1360" 
d="M1144 802v-541h-147v394h-785v147h932z" />
    <glyph glyph-name="sfthyphen" unicode="&#xad;" horiz-adv-x="453" 
d="M77 599h298v-190h-298v190z" />
    <glyph glyph-name="registered" unicode="&#xae;" horiz-adv-x="1020" 
d="M130 1286q61 111 173.5 175.5t240.5 64.5t240 -64t176 -176t64 -240q0 -129 -64 -241t-175 -176t-239 -63q-198 -1 -339 138t-141 342q0 124 64 240zM137 1047q-1 -106 55 -205q52 -95 148 -150t205 -55q169 -1 288 120t120 290q-1 168 -120.5 287.5t-287.5 120.5
q-169 -1 -288 -119t-120 -289zM385 1311h170q160 -6 160 -146q-2 -82 -57 -118l-27 -15l90 -224h-96l-80 207h-85v-207h-75v503zM460 1236v-146h99q78 0 81 73q2 72 -81 73h-99z" />
    <glyph glyph-name="glyph113" unicode="&#xaf;" horiz-adv-x="1020" 
d="M1024 1641v-105h-1024v105h1024z" />
    <glyph glyph-name="degree" unicode="&#xb0;" 
d="M192 1240q60 184 299 187q151 -2 235.5 -85t83.5 -235q1 -155 -84.5 -237t-234.5 -83q-239 2 -299 187q-22 63 -21 133q-1 69 21 133zM327 1107q0 -86 39 -134q50 -60 124 -59q50 -1 95 30.5t58 82.5q10 37 11 80q-1 42 -11 80q-13 50 -58 81.5t-95 31.5q-74 0 -124 -60
q-39 -48 -39 -133z" />
    <glyph glyph-name="plusminus" unicode="&#xb1;" horiz-adv-x="1360" 
d="M1146 -49v-147h-935v147h935zM605 602v394h147v-394h394v-147h-394v-394h-147v394h-394v147h394z" />
    <glyph glyph-name="twosuperior" unicode="&#xb2;" horiz-adv-x="642" 
d="M97 793v0q76 84 111 129q180 225 179 322q-2 75 -58 74q-54 -1 -53 -76v-36h-166v38q-4 187 223 191q218 0 220 -184q-1 -112 -71 -225q-39 -64 -77 -100l-90 -88l-44 -45v0h294v-117h-468v117z" />
    <glyph glyph-name="threesuperior" unicode="&#xb3;" horiz-adv-x="642" 
d="M266 892v-25q-1 -82 61 -83q57 -2 67 56l3 40q-2 106 -65 113l-39 3h-30v124h34l37 1q23 2 37 17q13 15 17 44l2 39q0 98 -59 97q-54 -2 -53 -70v-19h-166v26q1 178 220 180q119 0 169 -44q54 -48 55 -164q-3 -155 -122 -165v0l36 -7q94 -27 93 -165q0 -122 -56 -172.5
t-171 -50.5q-52 -1 -98 9q-139 24 -138 192v24h166z" />
    <glyph glyph-name="acute" unicode="&#xb4;" 
d="M479 1421h287l-192 -317h-214z" />
    <glyph glyph-name="mu" unicode="&#xb5;" horiz-adv-x="1208" 
d="M250 982h289l-134 -448l-30 -110q-17 -65 -16 -110q1 -68 46 -107t109 -37q121 -1 176 127q20 50 43 125l164 560h301l-288 -982h-234l35 121q-33 -39 -60 -66q-82 -81 -196 -83q-66 -2 -111 35q-52 26 -65 98l-137 -469h-289z" />
    <glyph glyph-name="paragraph" unicode="&#xb6;" 
d="M958 1442h-138v-1768h-79v1768h-99v-1768h-79v897l-63 13q-177 38 -279 156q-110 126 -109 299q-1 112 48 207q110 217 391 263q105 17 220 17h187v-84z" />
    <glyph glyph-name="periodcentered" unicode="&#xb7;" horiz-adv-x="453" 
d="M361 815v-259h-259v259h259z" />
    <glyph glyph-name="periodcentered" unicode="&#x2219;" horiz-adv-x="453" 
d="M361 815v-259h-259v259h259z" />
    <glyph glyph-name="cedilla" unicode="&#xb8;" 
d="M273 -404l169 299h185l-102 -299h-252z" />
    <glyph glyph-name="onesuperior" unicode="&#xb9;" horiz-adv-x="642" 
d="M141 1310l47 18q36 17 62 49l34 49h158v-750h-166v577l-28 -30q-33 -34 -72 -48l-35 -11v146z" />
    <glyph glyph-name="ordmasculine" unicode="&#xba;" horiz-adv-x="831" 
d="M153 1173q-1 56 8 101q25 151 246 153q145 0 204 -55q63 -58 62 -199v-152q0 -57 -8 -101q-26 -152 -246 -153q-146 -1 -205 54q-63 58 -61 200v152zM331 1022l2 -46q5 -81 82 -82q72 3 78 82l2 46v150l-2 46q-6 81 -81 82q-75 -2 -79 -82l-2 -46v-150z" />
    <glyph glyph-name="guillemotright" unicode="&#xbb;" horiz-adv-x="906" 
d="M272 124h-204l145 368l-145 368h213l167 -368zM659 124h-203l143 368l-143 368h222l158 -368z" />
    <glyph glyph-name="onequarter" unicode="&#xbc;" horiz-adv-x="1360" 
d="M875 1459h155l-665 -1529h-155zM875 750h233v-467h103v-117h-103v-166h-166v166h-260v146zM810 283v0h136v343v0zM139 1310l47 18q36 17 62 49l34 49h158v-750h-166v577l-28 -30q-33 -34 -72 -48l-35 -11v146z" />
    <glyph glyph-name="onehalf" unicode="&#xbd;" horiz-adv-x="1360" 
d="M849 1459h155l-665 -1529h-155zM737 117v0q292 325 291 450q-1 77 -59 75q-54 -1 -53 -76v-36h-166v38q-4 194 224 191q220 -2 220 -187q-1 -58 -20 -114.5t-52 -107.5q-37 -57 -77 -99l-90 -89l-45 -45v0h296v-117h-469v117zM113 1310l48 18q36 17 62 49l34 49h158v-750
h-166v577l-29 -30q-34 -33 -72 -48l-35 -11v146z" />
    <glyph glyph-name="threequarters" unicode="&#xbe;" horiz-adv-x="1360" 
d="M936 1459h155l-665 -1529h-155zM940 750h233v-467h103v-117h-103v-166h-166v166h-260v146zM875 283v0h136v343v0zM265 892v-25q-1 -82 61 -83q57 -2 67 56l3 40q-2 106 -65 113l-39 3h-30v124h34l37 1q23 2 37 17q13 15 17 44l2 39q0 98 -59 97q-54 -2 -53 -70v-19h-166
v26q1 178 220 180q119 0 169 -44q54 -48 55 -164q-3 -155 -122 -165v0l36 -7q94 -27 93 -165q0 -122 -56 -172.5t-171 -50.5q-52 -1 -98 9q-139 24 -138 192v24h166z" />
    <glyph glyph-name="questiondown" unicode="&#xbf;" horiz-adv-x="906" 
d="M583 591v-88v-58l-5 -82q-5 -52 -18 -82l-51 -102l-65 -124q-59 -113 -59 -208l3 -51q12 -76 78 -78q87 -3 86 124v63h259v-44q0 -55 -5 -95q-28 -221 -344 -222q-174 0 -248 64q-87 75 -88 238q-2 146 89 298l76 124l45 75q28 52 34 102l2 59v87h211zM604 982v-259h-259
v259h259z" />
    <glyph glyph-name="Agrave" unicode="&#xc0;" horiz-adv-x="1133" 
d="M413 307v0l-56 -307h-282l318 1410h345l318 -1410h-282l-57 307v0h-304zM679 519v0l-114 630v0l-115 -630v0h229zM607 1847l109 -317h-222l-184 317h297z" />
    <glyph glyph-name="Aacute" unicode="&#xc1;" horiz-adv-x="1133" 
d="M413 307v0l-56 -307h-282l318 1410h345l318 -1410h-282l-57 307v0h-304zM679 519v0l-114 630v0l-115 -630v0h229zM558 1847h287l-192 -317h-214z" />
    <glyph glyph-name="Acircumflex" unicode="&#xc2;" horiz-adv-x="1133" 
d="M413 307v0l-56 -307h-282l318 1410h345l318 -1410h-282l-57 307v0h-304zM679 519v0l-114 630v0l-115 -630v0h229zM429 1847h287l119 -317h-169l-94 182v0l-94 -182h-168z" />
    <glyph glyph-name="Atilde" unicode="&#xc3;" horiz-adv-x="1133" 
d="M413 307v0l-56 -307h-282l318 1410h345l318 -1410h-282l-57 307v0h-304zM679 519v0l-114 630v0l-115 -630v0h229zM311 1579l1 60q7 189 122 189q27 0 56 -10l40 -17l69 -36l29 -14q20 -11 32 -11q7 -1 14 5l10 12q5 10 6 26l1 24v21h152v-42l-2 -77q-2 -46 -16 -85
q-26 -81 -106 -81q-31 0 -60 12l-35 17l-65 36l-31 15q-19 7 -32 8q-9 0 -15 -4l-10 -10q-5 -11 -7 -26l-1 -28v-20h-152v36z" />
    <glyph glyph-name="Adieresis" unicode="&#xc4;" horiz-adv-x="1133" 
d="M413 307v0l-56 -307h-282l318 1410h345l318 -1410h-282l-57 307v0h-304zM679 519v0l-114 630v0l-115 -630v0h229zM281 1774h231v-231h-231v231zM616 1774h231v-231h-231v231z" />
    <glyph glyph-name="Aring" unicode="&#xc5;" horiz-adv-x="1133" 
d="M413 307v0l-56 -307h-282l318 1410h345l318 -1410h-282l-57 307v0h-304zM679 519v0l-114 630v0l-115 -630v0h229zM425 1879.5q59 58.5 145 59.5q86 -1 145 -60t60 -144q-1 -87 -59.5 -146t-144.5 -59t-145 58.5t-60 145.5q0 87 59 145.5zM483 1734q0 -36 26 -61.5
t62 -25.5q35 -1 61 26t26 63q-2 85 -88 86q-36 -1 -61.5 -27t-25.5 -61zM549 1410z" />
    <glyph glyph-name="AE" unicode="&#xc6;" horiz-adv-x="1586" 
d="M544 1410h937v-212h-533v0l54 -366v0h470v-212h-440v0l61 -408v0h403v-212h-657l-45 306v0h-367v0l-108 -306h-291zM496 518v0h273v0l-70 616v0z" />
    <glyph glyph-name="Ccedilla" unicode="&#xc7;" horiz-adv-x="1058" 
d="M978 436q-3 -177 -39 -265q-52 -126 -198 -166q-90 -26 -184 -25q-259 1 -348 124q-71 92 -83 228q-12 111 -11 261v232q-1 147 8 251q9 135 69 215q100 138 360 139q218 0 319 -100q97 -97 98 -319v-51h-287v42l-3 57q-8 80 -28 110q-32 47 -99 49q-115 2 -139 -149
q-12 -72 -11 -226v-242q-1 -85 5 -182q10 -227 143 -227q128 -2 139 175l2 61v53h287v-45zM293 -404l169 299h185l-102 -299h-252z" />
    <glyph glyph-name="Egrave" unicode="&#xc8;" horiz-adv-x="944" 
d="M841 1410v-212h-418v-368h403v-212h-403v-406h430v-212h-717v1410h705zM512 1847l109 -317h-222l-184 317h297z" />
    <glyph glyph-name="Eacute" unicode="&#xc9;" horiz-adv-x="944" 
d="M841 1410v-212h-418v-368h403v-212h-403v-406h430v-212h-717v1410h705zM463 1847h287l-192 -317h-214z" />
    <glyph glyph-name="Ecircumflex" unicode="&#xca;" horiz-adv-x="944" 
d="M841 1410v-212h-418v-368h403v-212h-403v-406h430v-212h-717v1410h705zM334 1847h287l119 -317h-169l-94 182v0l-94 -182h-168z" />
    <glyph glyph-name="Edieresis" unicode="&#xcb;" horiz-adv-x="944" 
d="M841 1410v-212h-418v-368h403v-212h-403v-406h430v-212h-717v1410h705zM186 1774h231v-231h-231v231zM521 1774h231v-231h-231v231z" />
    <glyph glyph-name="Igrave" unicode="&#xcc;" horiz-adv-x="529" 
d="M411 1410v-1410h-287v1410h287zM263 1847l109 -317h-222l-184 317h297z" />
    <glyph glyph-name="Iacute" unicode="&#xcd;" horiz-adv-x="529" 
d="M411 1410v-1410h-287v1410h287zM255 1847h287l-192 -317h-214z" />
    <glyph glyph-name="Icircumflex" unicode="&#xce;" horiz-adv-x="529" 
d="M411 1410v-1410h-287v1410h287zM126 1847h287l119 -317h-169l-94 182v0l-94 -182h-168z" />
    <glyph glyph-name="Idieresis" unicode="&#xcf;" horiz-adv-x="529" 
d="M411 1410v-1410h-287v1410h287zM-22 1774h231v-231h-231v231zM313 1774h231v-231h-231v231z" />
    <glyph glyph-name="Eth" unicode="&#xd0;" horiz-adv-x="1133" 
d="M139 1410h375q182 -1 278 -36q143 -52 193 -191q27 -76 35 -166q6 -78 7 -174v-315q-3 -436 -238 -499q-104 -29 -275 -29h-375v605h-111v212h111v593zM426 817h140v-212h-140v-393h78q120 0 166 40q59 49 66 158q4 54 4 119v313q-1 190 -28 255q-42 100 -220 101h-66
v-381z" />
    <glyph glyph-name="Ntilde" unicode="&#xd1;" horiz-adv-x="1171" 
d="M553 1410l250 -1211v0v1211h237v-1410h-424l-250 1208v0v-1208h-237v1410h424zM330 1579l1 60q7 189 122 189q27 0 56 -10l40 -17l69 -36l29 -14q20 -11 32 -11q7 -1 14 5l10 12q5 10 6 26l1 24v21h152v-42l-2 -77q-2 -46 -16 -85q-26 -81 -106 -81q-31 0 -60 12l-35 17
l-65 36l-31 15q-19 7 -32 8q-9 0 -15 -4l-10 -10q-5 -11 -7 -26l-1 -28v-20h-152v36z" />
    <glyph glyph-name="Ograve" unicode="&#xd2;" horiz-adv-x="1133" 
d="M125 881q0 177 5 241q7 105 73 178q68 77 169 105q91 25 188 25q269 -2 370 -130q66 -83 73 -178q4 -64 5 -241v-352q-1 -296 -72 -402q-98 -146 -369 -147q-193 0 -305.5 78t-128.5 279q-9 89 -8 192v352zM412 530l3 -140q7 -198 152 -198q105 1 133 92q15 47 18 106
l3 140v350l-3 140q-8 198 -156 198q-141 2 -147 -198l-3 -140v-350zM607 1847l109 -317h-222l-184 317h297z" />
    <glyph glyph-name="Oacute" unicode="&#xd3;" horiz-adv-x="1133" 
d="M125 881q0 177 5 241q7 105 73 178q68 77 169 105q91 25 188 25q269 -2 370 -130q66 -83 73 -178q4 -64 5 -241v-352q-1 -296 -72 -402q-98 -146 -369 -147q-193 0 -305.5 78t-128.5 279q-9 89 -8 192v352zM412 530l3 -140q7 -198 152 -198q105 1 133 92q15 47 18 106
l3 140v350l-3 140q-8 198 -156 198q-141 2 -147 -198l-3 -140v-350zM558 1847h287l-192 -317h-214z" />
    <glyph glyph-name="Ocircumflex" unicode="&#xd4;" horiz-adv-x="1133" 
d="M125 881q0 177 5 241q7 105 73 178q68 77 169 105q91 25 188 25q269 -2 370 -130q66 -83 73 -178q4 -64 5 -241v-352q-1 -296 -72 -402q-98 -146 -369 -147q-193 0 -305.5 78t-128.5 279q-9 89 -8 192v352zM412 530l3 -140q7 -198 152 -198q105 1 133 92q15 47 18 106
l3 140v350l-3 140q-8 198 -156 198q-141 2 -147 -198l-3 -140v-350zM429 1847h287l119 -317h-169l-94 182v0l-94 -182h-168z" />
    <glyph glyph-name="Otilde" unicode="&#xd5;" horiz-adv-x="1133" 
d="M125 881q0 177 5 241q7 105 73 178q68 77 169 105q91 25 188 25q269 -2 370 -130q66 -83 73 -178q4 -64 5 -241v-352q-1 -296 -72 -402q-98 -146 -369 -147q-193 0 -305.5 78t-128.5 279q-9 89 -8 192v352zM412 530l3 -140q7 -198 152 -198q105 1 133 92q15 47 18 106
l3 140v350l-3 140q-8 198 -156 198q-141 2 -147 -198l-3 -140v-350zM311 1579l1 60q7 189 122 189q27 0 56 -10l40 -17l69 -36l29 -14q20 -11 32 -11q7 -1 14 5l10 12q5 10 6 26l1 24v21h152v-42l-2 -77q-2 -46 -16 -85q-26 -81 -106 -81q-31 0 -60 12l-35 17l-65 36l-31 15
q-19 7 -32 8q-9 0 -15 -4l-10 -10q-5 -11 -7 -26l-1 -28v-20h-152v36z" />
    <glyph glyph-name="Odieresis" unicode="&#xd6;" horiz-adv-x="1133" 
d="M125 881q0 177 5 241q7 105 73 178q68 77 169 105q91 25 188 25q269 -2 370 -130q66 -83 73 -178q4 -64 5 -241v-352q-1 -296 -72 -402q-98 -146 -369 -147q-193 0 -305.5 78t-128.5 279q-9 89 -8 192v352zM412 530l3 -140q7 -198 152 -198q105 1 133 92q15 47 18 106
l3 140v350l-3 140q-8 198 -156 198q-141 2 -147 -198l-3 -140v-350zM281 1774h231v-231h-231v231zM616 1774h231v-231h-231v231z" />
    <glyph glyph-name="multiply" unicode="&#xd7;" horiz-adv-x="1360" 
d="M356 960l327 -328v0l328 328l99 -99l-328 -328v0l328 -327l-99 -99l-328 327v0l-328 -327l-98 98l327 328v0l-327 328z" />
    <glyph glyph-name="Oslash" unicode="&#xd8;" horiz-adv-x="1133" 
d="M852 1368q120 -68 148 -217q8 -47 9 -269v-353q-1 -108 -7 -192q-28 -356 -440 -357q-75 -1 -126 11l-44 11v0l-50 -159l-88 29l52 160v0l-29 16q-100 62 -133 218q-19 91 -18 263v352q0 148 3 208q5 122 62 196q111 143 376 145q90 0 158 -15l25 -6v0l44 138l87 -29
l-46 -141v0zM718 1014v0l-252 -784v0l5 -6q34 -34 97 -32q104 1 133 92q15 46 18 106l3 140v350v88zM416 373v0l259 800v0l-6 7q-39 39 -103 38q-104 -2 -132 -92q-16 -47 -18 -106l-3 -140v-351l1 -91z" />
    <glyph glyph-name="Ugrave" unicode="&#xd9;" horiz-adv-x="1133" 
d="M416 1410v-922l2 -106q1 -95 24 -133q35 -56 118 -57q87 -2 124 53q27 39 28 137l2 106v922h287v-915q-1 -287 -82 -387q-57 -72 -149.5 -100.5t-195.5 -27.5q-118 0 -214 29q-145 41 -201 196q-30 86 -30 290v915h287zM607 1847l109 -317h-222l-184 317h297z" />
    <glyph glyph-name="Uacute" unicode="&#xda;" horiz-adv-x="1133" 
d="M416 1410v-922l2 -106q1 -95 24 -133q35 -56 118 -57q87 -2 124 53q27 39 28 137l2 106v922h287v-915q-1 -287 -82 -387q-57 -72 -149.5 -100.5t-195.5 -27.5q-118 0 -214 29q-145 41 -201 196q-30 86 -30 290v915h287zM558 1847h287l-192 -317h-214z" />
    <glyph glyph-name="Ucircumflex" unicode="&#xdb;" horiz-adv-x="1133" 
d="M416 1410v-922l2 -106q1 -95 24 -133q35 -56 118 -57q87 -2 124 53q27 39 28 137l2 106v922h287v-915q-1 -287 -82 -387q-57 -72 -149.5 -100.5t-195.5 -27.5q-118 0 -214 29q-145 41 -201 196q-30 86 -30 290v915h287zM429 1847h287l119 -317h-169l-94 182v0l-94 -182
h-168z" />
    <glyph glyph-name="Udieresis" unicode="&#xdc;" horiz-adv-x="1133" 
d="M416 1410v-922l2 -106q1 -95 24 -133q35 -56 118 -57q87 -2 124 53q27 39 28 137l2 106v922h287v-915q-1 -287 -82 -387q-57 -72 -149.5 -100.5t-195.5 -27.5q-118 0 -214 29q-145 41 -201 196q-30 86 -30 290v915h287zM281 1774h231v-231h-231v231zM616 1774h231v-231
h-231v231z" />
    <glyph glyph-name="Yacute" unicode="&#xdd;" horiz-adv-x="1058" 
d="M365 1410l162 -573v0l180 573h297l-332 -878v-532h-287v532l-332 878h312zM520 1847h287l-192 -317h-214z" />
    <glyph glyph-name="Thorn" unicode="&#xde;" horiz-adv-x="1058" 
d="M126 1410h287v-242h160q72 0 146 -13q155 -28 214 -143q48 -96 50 -261q0 -108 -18 -192q-50 -242 -392 -242h-160v-317h-287v1410zM413 956v-427h108q104 -1 144 57q29 42 31 157q-2 108 -31 157q-35 56 -144 56h-108z" />
    <glyph glyph-name="germandbls" unicode="&#xdf;" horiz-adv-x="1020" 
d="M93 988l3 130q8 175 120 246q92 58 277 60q221 -2 302 -97q33 -38 46.5 -90t13.5 -104q-2 -110 -59 -182l-58 -71q-43 -55 -44 -87q0 -46 61 -127l74 -100l57 -79q57 -87 58 -204q1 -256 -230 -293q-58 -11 -149 -10l-79 5l-57 6v165l33 -1l72 -1q153 3 151 140
q-1 78 -46 136l-103 132q-46 56 -74 117q-28 54 -27 107q-1 59 49 125l59 73q51 63 53 137q-4 127 -120 129q-120 -4 -122 -134l-2 -144v-972h-259v988z" />
    <glyph glyph-name="agrave" unicode="&#xe0;" horiz-adv-x="906" 
d="M100 727q4 274 349 275q174 1 260.5 -68t90.5 -249v-79v-606h-256v87l-39 -42q-71 -64 -196 -65q-236 -5 -233 281q-3 211 91 284q88 69 297 72h77v67l-1 49q0 118 -85 116q-100 -1 -96 -115v-36h-259v29zM541 464h-31q-103 -2 -138.5 -45t-36.5 -143l3 -52
q13 -91 87 -91q82 3 103 96q5 27 9 60l4 71v104zM528 1421l109 -317h-222l-184 317h297z" />
    <glyph glyph-name="aacute" unicode="&#xe1;" horiz-adv-x="906" 
d="M100 727q4 274 349 275q174 1 260.5 -68t90.5 -249v-79v-606h-256v87l-39 -42q-71 -64 -196 -65q-236 -5 -233 281q-3 211 91 284q88 69 297 72h77v67l-1 49q0 118 -85 116q-100 -1 -96 -115v-36h-259v29zM541 464h-31q-103 -2 -138.5 -45t-36.5 -143l3 -52
q13 -91 87 -91q82 3 103 96q5 27 9 60l4 71v104zM441 1421h287l-192 -317h-214z" />
    <glyph glyph-name="acircumflex" unicode="&#xe2;" horiz-adv-x="906" 
d="M100 727q4 274 349 275q174 1 260.5 -68t90.5 -249v-79v-606h-256v87l-39 -42q-71 -64 -196 -65q-236 -5 -233 281q-3 211 91 284q88 69 297 72h77v67l-1 49q0 118 -85 116q-100 -1 -96 -115v-36h-259v29zM541 464h-31q-103 -2 -138.5 -45t-36.5 -143l3 -52
q13 -91 87 -91q82 3 103 96q5 27 9 60l4 71v104zM319 1421h287l119 -317h-169l-94 182v0l-94 -182h-168z" />
    <glyph glyph-name="atilde" unicode="&#xe3;" horiz-adv-x="906" 
d="M100 727q4 274 349 275q174 1 260.5 -68t90.5 -249v-79v-606h-256v87l-39 -42q-71 -64 -196 -65q-236 -5 -233 281q-3 211 91 284q88 69 297 72h77v67l-1 49q0 118 -85 116q-100 -1 -96 -115v-36h-259v29zM541 464h-31q-103 -2 -138.5 -45t-36.5 -143l3 -52
q13 -91 87 -91q82 3 103 96q5 27 9 60l4 71v104zM212 1140l1 60q7 189 122 189q27 0 56 -10l40 -17l69 -36l29 -14q20 -11 32 -11q7 -1 14 5l10 12q5 10 6 26l1 24v21h152v-42l-2 -77q-2 -46 -16 -85q-26 -81 -106 -81q-31 0 -60 12l-35 17l-65 36l-31 15q-19 7 -32 8
q-9 0 -15 -4l-10 -10q-5 -11 -7 -26l-1 -28v-20h-152v36z" />
    <glyph glyph-name="adieresis" unicode="&#xe4;" horiz-adv-x="906" 
d="M100 727q4 274 349 275q174 1 260.5 -68t90.5 -249v-79v-606h-256v87l-39 -42q-71 -64 -196 -65q-236 -5 -233 281q-3 211 91 284q88 69 297 72h77v67l-1 49q0 118 -85 116q-100 -1 -96 -115v-36h-259v29zM541 464h-31q-103 -2 -138.5 -45t-36.5 -143l3 -52
q13 -91 87 -91q82 3 103 96q5 27 9 60l4 71v104zM176 1417h231v-231h-231v231zM511 1417h231v-231h-231v231z" />
    <glyph glyph-name="aring" unicode="&#xe5;" horiz-adv-x="906" 
d="M100 727q4 274 349 275q174 1 260.5 -68t90.5 -249v-79v-606h-256v87l-39 -42q-71 -64 -196 -65q-236 -5 -233 281q-3 211 91 284q88 69 297 72h77v67l-1 49q0 118 -85 116q-100 -1 -96 -115v-36h-259v29zM541 464h-31q-103 -2 -138.5 -45t-36.5 -143l3 -52
q13 -91 87 -91q82 3 103 96q5 27 9 60l4 71v104zM305 1453.5q59 58.5 145 59.5q86 -1 145 -60t60 -144q-1 -87 -59.5 -146t-144.5 -59t-145 58.5t-60 145.5q0 87 59 145.5zM363 1308q0 -36 26 -61.5t62 -25.5q35 -1 61 26t26 63q-2 85 -88 86q-36 -1 -61.5 -27t-25.5 -61z
M429 984z" />
    <glyph glyph-name="ae" unicode="&#xe6;" horiz-adv-x="1360" 
d="M98 731q-3 271 321 271q195 1 239 -118l13 -36v0l17 34q42 81 105.5 100.5t133.5 19.5q211 -1 277 -114q52 -89 53 -306v-129h-458v-102l3 -94q2 -38 15 -69q21 -57 82 -55q81 -1 95 99l4 52v63h259v-52q-3 -233 -185 -290q-80 -26 -165 -25q-189 -2 -239 131l-11 37v0
l-17 -39q-38 -79 -106 -106q-55 -22 -151 -23q-307 0 -305 291q1 166 59 240q66 84 227 92l118 3h58v60l-2 54q-4 38 -12 68q-17 59 -80 61q-86 1 -89 -116v-45h-259v43zM540 453h-40q-35 0 -64 -5q-100 -15 -99 -170q0 -147 92 -145q65 0 91 61q10 24 14 63q6 54 6 106v90z
M799 606h199v62v53q-4 128 -94 128q-58 2 -86 -60q-14 -33 -17 -70l-2 -53v-60z" />
    <glyph glyph-name="ccedilla" unicode="&#xe7;" horiz-adv-x="831" 
d="M501 626v65q2 138 -84 137q-74 -2 -77 -109l-2 -96v-252l3 -109q-1 -106 73 -108q77 1 84 75l3 69v70h259v-62l-1 -50q-10 -275 -347 -276q-308 2 -327 282l-6 107v256q1 201 74 280q87 96 273 97q82 0 150 -20q52 -16 94 -55q69 -64 85 -187l5 -67v-47h-259zM173 -404
l169 299h185l-102 -299h-252z" />
    <glyph glyph-name="egrave" unicode="&#xe8;" horiz-adv-x="868" 
d="M331 335l1 -73q0 -127 99 -129q91 1 102 108l4 60v32h259v-42q0 -35 -6 -71q-43 -241 -361 -240q-139 0 -227 47q-95 51 -118 192q-13 70 -12 143v200q-1 60 5 124q14 171 97.5 242.5t252.5 73.5q222 -2 297 -97q69 -88 72 -310v-153h-465v-107zM331 595h206v80l-2 72
q-10 99 -99 102q-88 2 -101 -111l-4 -63v-80zM509 1421l109 -317h-222l-184 317h297z" />
    <glyph glyph-name="eacute" unicode="&#xe9;" horiz-adv-x="868" 
d="M331 335l1 -73q0 -127 99 -129q91 1 102 108l4 60v32h259v-42q0 -35 -6 -71q-43 -241 -361 -240q-139 0 -227 47q-95 51 -118 192q-13 70 -12 143v200q-1 60 5 124q14 171 97.5 242.5t252.5 73.5q222 -2 297 -97q69 -88 72 -310v-153h-465v-107zM331 595h206v80l-2 72
q-10 99 -99 102q-88 2 -101 -111l-4 -63v-80zM422 1421h287l-192 -317h-214z" />
    <glyph glyph-name="ecircumflex" unicode="&#xea;" horiz-adv-x="868" 
d="M331 335l1 -73q0 -127 99 -129q91 1 102 108l4 60v32h259v-42q0 -35 -6 -71q-43 -241 -361 -240q-139 0 -227 47q-95 51 -118 192q-13 70 -12 143v200q-1 60 5 124q14 171 97.5 242.5t252.5 73.5q222 -2 297 -97q69 -88 72 -310v-153h-465v-107zM331 595h206v80l-2 72
q-10 99 -99 102q-88 2 -101 -111l-4 -63v-80zM300 1421h287l119 -317h-169l-94 182v0l-94 -182h-168z" />
    <glyph glyph-name="edieresis" unicode="&#xeb;" horiz-adv-x="868" 
d="M331 335l1 -73q0 -127 99 -129q91 1 102 108l4 60v32h259v-42q0 -35 -6 -71q-43 -241 -361 -240q-139 0 -227 47q-95 51 -118 192q-13 70 -12 143v200q-1 60 5 124q14 171 97.5 242.5t252.5 73.5q222 -2 297 -97q69 -88 72 -310v-153h-465v-107zM331 595h206v80l-2 72
q-10 99 -99 102q-88 2 -101 -111l-4 -63v-80zM157 1417h231v-231h-231v231zM492 1417h231v-231h-231v231z" />
    <glyph glyph-name="igrave" unicode="&#xec;" horiz-adv-x="491" 
d="M375 982v-982h-259v982h259zM266 1421l109 -317h-222l-184 317h297z" />
    <glyph glyph-name="iacute" unicode="&#xed;" horiz-adv-x="491" 
d="M375 982v-982h-259v982h259zM233 1421h287l-192 -317h-214z" />
    <glyph glyph-name="icircumflex" unicode="&#xee;" horiz-adv-x="491" 
d="M375 982v-982h-259v982h259zM95 1421h287l119 -317h-169l-94 182v0l-94 -182h-168z" />
    <glyph glyph-name="idieresis" unicode="&#xef;" horiz-adv-x="491" 
d="M375 982v-982h-259v982h259zM-44 1417h231v-231h-231v231zM291 1417h231v-231h-231v231z" />
    <glyph glyph-name="eth" unicode="&#xf0;" horiz-adv-x="906" 
d="M297 1090l-53 111l148 69v0l-14 14l-61 59l-25 24l176 77l17 -13q31 -24 71 -64l15 -15v0l187 88l53 -113l-157 -72v0l12 -17q114 -167 140 -416q11 -111 11 -185v-282q0 -89 -11 -151q-19 -115 -135 -176q-92 -49 -222 -48q-188 1 -277 95q-78 81 -79 282v282
q-1 150 40 219q60 100 178 132q44 12 100 12q61 0 105 -15l46 -20l-12 35l-38 86l-35 69l-8 12v0zM352 358q-1 -48 4 -92q9 -112 102 -112q95 -3 99 112l1 97v280l-3 88q-2 47 -13 67q-19 29 -76 30q-102 1 -111 -111l-3 -86v-273z" />
    <glyph glyph-name="ntilde" unicode="&#xf1;" horiz-adv-x="944" 
d="M363 982v-94l47 47q36 32 86 49.5t102 17.5q238 3 234 -272v-96v-634h-259v638v53l-2 60q-11 74 -90 77q-106 0 -112 -140l-2 -51v-637h-259v982h255zM231 1140l1 60q7 189 122 189q27 0 56 -10l40 -17l69 -36l29 -14q20 -11 32 -11q7 -1 14 5l10 12q5 10 6 26l1 24v21
h152v-42l-2 -77q-2 -46 -16 -85q-26 -81 -106 -81q-31 0 -60 12l-35 17l-65 36l-31 15q-19 7 -32 8q-9 0 -15 -4l-10 -10q-5 -11 -7 -26l-1 -28v-20h-152v36z" />
    <glyph glyph-name="ograve" unicode="&#xf2;" horiz-adv-x="906" 
d="M815 405l-1 -84q-7 -176 -77 -246q-52 -55 -123 -74q-75 -22 -154 -21q-187 1 -274.5 77.5t-93.5 263.5l-1 84v173l1 84q6 184 90 259q93 82 266 81q185 -2 272 -78t94 -262l1 -84v-173zM350 365v-49l2 -68q9 -115 105 -115q86 -3 96 115l3 68v49v251v50l-3 68
q-9 113 -100 115q-93 -2 -101 -115l-2 -68v-50v-251zM528 1421l109 -317h-222l-184 317h297z" />
    <glyph glyph-name="oacute" unicode="&#xf3;" horiz-adv-x="906" 
d="M815 405l-1 -84q-7 -176 -77 -246q-52 -55 -123 -74q-75 -22 -154 -21q-187 1 -274.5 77.5t-93.5 263.5l-1 84v173l1 84q6 184 90 259q93 82 266 81q185 -2 272 -78t94 -262l1 -84v-173zM350 365v-49l2 -68q9 -115 105 -115q86 -3 96 115l3 68v49v251v50l-3 68
q-9 113 -100 115q-93 -2 -101 -115l-2 -68v-50v-251zM441 1421h287l-192 -317h-214z" />
    <glyph glyph-name="ocircumflex" unicode="&#xf4;" horiz-adv-x="906" 
d="M815 405l-1 -84q-7 -176 -77 -246q-52 -55 -123 -74q-75 -22 -154 -21q-187 1 -274.5 77.5t-93.5 263.5l-1 84v173l1 84q6 184 90 259q93 82 266 81q185 -2 272 -78t94 -262l1 -84v-173zM350 365v-49l2 -68q9 -115 105 -115q86 -3 96 115l3 68v49v251v50l-3 68
q-9 113 -100 115q-93 -2 -101 -115l-2 -68v-50v-251zM319 1421h287l119 -317h-169l-94 182v0l-94 -182h-168z" />
    <glyph glyph-name="otilde" unicode="&#xf5;" horiz-adv-x="906" 
d="M815 405l-1 -84q-7 -176 -77 -246q-52 -55 -123 -74q-75 -22 -154 -21q-187 1 -274.5 77.5t-93.5 263.5l-1 84v173l1 84q6 184 90 259q93 82 266 81q185 -2 272 -78t94 -262l1 -84v-173zM350 365v-49l2 -68q9 -115 105 -115q86 -3 96 115l3 68v49v251v50l-3 68
q-9 113 -100 115q-93 -2 -101 -115l-2 -68v-50v-251zM212 1140l1 60q7 189 122 189q27 0 56 -10l40 -17l69 -36l29 -14q20 -11 32 -11q7 -1 14 5l10 12q5 10 6 26l1 24v21h152v-42l-2 -77q-2 -46 -16 -85q-26 -81 -106 -81q-31 0 -60 12l-35 17l-65 36l-31 15q-19 7 -32 8
q-9 0 -15 -4l-10 -10q-5 -11 -7 -26l-1 -28v-20h-152v36z" />
    <glyph glyph-name="odieresis" unicode="&#xf6;" horiz-adv-x="906" 
d="M815 405l-1 -84q-7 -176 -77 -246q-52 -55 -123 -74q-75 -22 -154 -21q-187 1 -274.5 77.5t-93.5 263.5l-1 84v173l1 84q6 184 90 259q93 82 266 81q185 -2 272 -78t94 -262l1 -84v-173zM350 365v-49l2 -68q9 -115 105 -115q86 -3 96 115l3 68v49v251v50l-3 68
q-9 113 -100 115q-93 -2 -101 -115l-2 -68v-50v-251zM176 1417h231v-231h-231v231zM511 1417h231v-231h-231v231z" />
    <glyph glyph-name="divide" unicode="&#xf7;" horiz-adv-x="1360" 
d="M601 317q34 34 81 35q46 0 80 -33.5t35 -81.5q-1 -50 -33.5 -82.5t-81.5 -32.5q-50 0 -82.5 33t-32.5 82q0 46 34 80zM1153 602v-147h-942v147h942zM601 900q34 34 81 35q46 0 80 -33.5t35 -81.5q-1 -50 -33.5 -82.5t-81.5 -32.5q-50 0 -82.5 33t-32.5 82q0 46 34 80z
" />
    <glyph glyph-name="oslash" unicode="&#xf8;" horiz-adv-x="906" 
d="M655 966q151 -66 159 -304l1 -85v-172l-1 -85q-10 -270 -200 -319q-81 -22 -169 -21q-58 -1 -90 7l-14 4v0l-48 -160l-62 20l46 155v0l-21 8q-156 65 -164 307l-1 84v173l1 84q6 186 93.5 261.5t269.5 78.5q56 0 97 -8l23 -5v0l37 120l63 -20l-36 -117v0zM554 694v0
l-164 -543v0l8 -5q24 -13 56 -13q90 2 99 115l3 68v48v252v49zM352 250v0l172 570v0l-17 16q-21 13 -59 13q-87 2 -96 -115l-2 -68v-50v-251v-48z" />
    <glyph glyph-name="ugrave" unicode="&#xf9;" horiz-adv-x="944" 
d="M369 982v-664l2 -63q3 -103 92 -101q65 -1 92 57q19 44 20 107v664h259v-982h-244v92l-38 -35q-93 -79 -201 -77q-238 4 -241 277v63v662h259zM547 1421l109 -317h-222l-184 317h297z" />
    <glyph glyph-name="uacute" unicode="&#xfa;" horiz-adv-x="944" 
d="M369 982v-664l2 -63q3 -103 92 -101q65 -1 92 57q19 44 20 107v664h259v-982h-244v92l-38 -35q-93 -79 -201 -77q-238 4 -241 277v63v662h259zM460 1421h287l-192 -317h-214z" />
    <glyph glyph-name="ucircumflex" unicode="&#xfb;" horiz-adv-x="944" 
d="M369 982v-664l2 -63q3 -103 92 -101q65 -1 92 57q19 44 20 107v664h259v-982h-244v92l-38 -35q-93 -79 -201 -77q-238 4 -241 277v63v662h259zM338 1421h287l119 -317h-169l-94 182v0l-94 -182h-168z" />
    <glyph glyph-name="udieresis" unicode="&#xfc;" horiz-adv-x="944" 
d="M369 982v-664l2 -63q3 -103 92 -101q65 -1 92 57q19 44 20 107v664h259v-982h-244v92l-38 -35q-93 -79 -201 -77q-238 4 -241 277v63v662h259zM189 1417h231v-231h-231v231zM524 1417h231v-231h-231v231z" />
    <glyph glyph-name="yacute" unicode="&#xfd;" horiz-adv-x="906" 
d="M311 982l149 -608v0l144 608h257l-359 -1346h-247l87 360v0l-290 986h259zM441 1421h287l-192 -317h-214z" />
    <glyph glyph-name="thorn" unicode="&#xfe;" horiz-adv-x="906" 
d="M351 1412v-512l37 41q34 34 82 48q42 13 91 13q162 -1 218 -113q36 -73 37 -255v-249q0 -199 -26 -268q-52 -135 -210 -137q-53 -1 -102 16q-45 14 -77 37l-50 39v-460h-259v1800h259zM351 388l2 -76q2 -50 10 -84q16 -75 97 -74q89 -2 95 156l2 80v212l-3 97
q-13 130 -97 129q-62 0 -84 -52q-13 -32 -17 -75q-6 -51 -5 -96v-217z" />
    <glyph glyph-name="ydieresis" unicode="&#xff;" horiz-adv-x="906" 
d="M311 982l149 -608v0l144 608h257l-359 -1346h-247l87 360v0l-290 986h259zM176 1417h231v-231h-231v231zM511 1417h231v-231h-231v231z" />
    <glyph glyph-name="Abreve" unicode="&#x102;" horiz-adv-x="1133" 
d="M413 307v0l-56 -307h-282l318 1410h345l318 -1410h-282l-57 307v0h-304zM679 519v0l-114 630v0l-115 -630v0h229zM480 1847v-30l4 -50q12 -105 95 -104q82 -2 95 104l4 50v30h177l-1 -62q-2 -50 -17 -95q-34 -107 -135 -140q-59 -21 -123 -20q-65 -1 -123 20
q-142 47 -152 235l-1 62h177z" />
    <glyph glyph-name="abreve" unicode="&#x103;" horiz-adv-x="906" 
d="M100 727q4 274 349 275q174 1 260.5 -68t90.5 -249v-79v-606h-256v87l-39 -42q-71 -64 -196 -65q-236 -5 -233 281q-3 211 91 284q88 69 297 72h77v67l-1 49q0 118 -85 116q-100 -1 -96 -115v-36h-259v29zM541 464h-31q-103 -2 -138.5 -45t-36.5 -143l3 -52
q13 -91 87 -91q82 3 103 96q5 27 9 60l4 71v104zM358 1421v-30l4 -50q12 -105 95 -104q82 -2 95 104l4 50v30h177l-1 -62q-2 -50 -17 -95q-34 -107 -135 -140q-59 -21 -123 -20q-65 -1 -123 20q-142 47 -152 235l-1 62h177z" />
    <glyph glyph-name="Aogonek" unicode="&#x104;" horiz-adv-x="1133" 
d="M413 307v0l-56 -307h-282l318 1410h345l318 -1410h-282l-57 307v0h-304zM679 519v0l-114 630v0l-115 -630v0h229zM927 23l-42 -33q-69 -55 -68 -107q-3 -67 103 -72h47v-141l-31 -5l-52 -2q-223 4 -220 170q1 73 65 139q24 26 45 39l21 12h132z" />
    <glyph glyph-name="aogonek" unicode="&#x105;" horiz-adv-x="906" 
d="M100 727q4 274 349 275q174 1 260.5 -68t90.5 -249v-79v-606h-256v87l-39 -42q-71 -64 -196 -65q-236 -5 -233 281q-3 211 91 284q88 69 297 72h77v67l-1 49q0 118 -85 116q-100 -1 -96 -115v-36h-259v29zM541 464h-31q-103 -2 -138.5 -45t-36.5 -143l3 -52
q13 -91 87 -91q82 3 103 96q5 27 9 60l4 71v104zM740 23l-42 -33q-69 -55 -68 -107q-3 -67 103 -72h47v-141l-31 -5l-52 -2q-223 4 -220 170q1 73 65 139q24 26 45 39l21 12h132z" />
    <glyph glyph-name="Cacute" unicode="&#x106;" horiz-adv-x="1058" 
d="M978 436q-3 -177 -39 -265q-52 -126 -198 -166q-90 -26 -184 -25q-259 1 -348 124q-71 92 -83 228q-12 111 -11 261v232q-1 147 8 251q9 135 69 215q100 138 360 139q218 0 319 -100q97 -97 98 -319v-51h-287v42l-3 57q-8 80 -28 110q-32 47 -99 49q-115 2 -139 -149
q-12 -72 -11 -226v-242q-1 -85 5 -182q10 -227 143 -227q128 -2 139 175l2 61v53h287v-45zM571 1847h287l-192 -317h-214z" />
    <glyph glyph-name="cacute" unicode="&#x107;" horiz-adv-x="831" 
d="M501 626v65q2 138 -84 137q-74 -2 -77 -109l-2 -96v-252l3 -109q-1 -106 73 -108q77 1 84 75l3 69v70h259v-62l-1 -50q-10 -275 -347 -276q-308 2 -327 282l-6 107v256q1 201 74 280q87 96 273 97q82 0 150 -20q52 -16 94 -55q69 -64 85 -187l5 -67v-47h-259zM414 1421
h287l-192 -317h-214z" />
    <glyph glyph-name="Ccaron" unicode="&#x10c;" horiz-adv-x="1058" 
d="M978 436q-3 -177 -39 -265q-52 -126 -198 -166q-90 -26 -184 -25q-259 1 -348 124q-71 92 -83 228q-12 111 -11 261v232q-1 147 8 251q9 135 69 215q100 138 360 139q218 0 319 -100q97 -97 98 -319v-51h-287v42l-3 57q-8 80 -28 110q-32 47 -99 49q-115 2 -139 -149
q-12 -72 -11 -226v-242q-1 -85 5 -182q10 -227 143 -227q128 -2 139 175l2 61v53h287v-45zM678 1530h-287l-119 317h168l94 -183v0l94 183h169zM528 1410z" />
    <glyph glyph-name="ccaron" unicode="&#x10d;" horiz-adv-x="831" 
d="M501 626v65q2 138 -84 137q-74 -2 -77 -109l-2 -96v-252l3 -109q-1 -106 73 -108q77 1 84 75l3 69v70h259v-62l-1 -50q-10 -275 -347 -276q-308 2 -327 282l-6 107v256q1 201 74 280q87 96 273 97q82 0 150 -20q52 -16 94 -55q69 -64 85 -187l5 -67v-47h-259zM569 1104
h-287l-119 317h168l94 -183v0l94 183h169zM419 984z" />
    <glyph glyph-name="Dcaron" unicode="&#x10e;" horiz-adv-x="1133" 
d="M493 1410q182 -1 278 -36q143 -52 193 -191q27 -76 35 -166q6 -78 7 -174v-315q-3 -436 -238 -499q-104 -29 -275 -29h-375v1410h375zM405 212h78q120 0 166 40q59 49 66 158q4 54 4 119v313q-1 190 -28 255q-42 100 -220 101h-66v-986zM698 1530h-287l-119 317h168
l94 -183v0l94 183h169zM548 1410z" />
    <glyph glyph-name="dcaron" unicode="&#x10f;" horiz-adv-x="1133" 
d="M813 1412v-1412h-248v93l-15 -20q-17 -21 -44 -40q-69 -52 -161 -53q-56 -1 -105 17q-127 42 -143 199l-6 82l-2 100v252q-1 65 5 126q21 246 234 246q52 0 104 -17q45 -15 80 -40l42 -35v502h259zM348 396v-79q3 -162 103 -163q79 2 94 96q7 41 9 149v222l-3 74
q-4 38 -12 68q-20 63 -92 65q-95 -3 -98 -146l-1 -68v-218zM1044 1068h-134l40 344h192z" />
    <glyph glyph-name="Dslash" unicode="&#x110;" horiz-adv-x="1133" 
d="M139 1410h375q182 -1 278 -36q143 -52 193 -191q27 -76 35 -166q6 -78 7 -174v-315q-3 -436 -238 -499q-104 -29 -275 -29h-375v605h-111v212h111v593zM426 817h140v-212h-140v-393h78q120 0 166 40q59 49 66 158q4 54 4 119v313q-1 190 -28 255q-42 100 -220 101h-66
v-381z" />
    <glyph glyph-name="dcroat" unicode="&#x111;" horiz-adv-x="906" 
d="M818 0h-248v93l-15 -20q-17 -21 -44 -40q-69 -52 -161 -53q-56 -1 -105 17q-127 42 -143 199l-6 82l-2 100v252q-1 65 5 126q21 246 234 246q52 0 104 -17q45 -15 80 -40l42 -35v177h-173v192h173v133h259v-133h103v-192h-103v-1087zM353 396v-79q3 -162 103 -163
q79 2 94 96q7 41 9 149v222l-3 74q-4 38 -12 68q-20 63 -92 65q-95 -3 -98 -146l-1 -68v-218z" />
    <glyph glyph-name="Eogonek" unicode="&#x118;" horiz-adv-x="944" 
d="M841 1410v-212h-418v-368h403v-212h-403v-406h430v-212h-717v1410h705zM841 23l-42 -33q-69 -55 -68 -107q-3 -67 103 -72h47v-141l-31 -5l-52 -2q-223 4 -220 170q1 73 65 139q24 26 45 39l21 12h132z" />
    <glyph glyph-name="eogonek" unicode="&#x119;" horiz-adv-x="868" 
d="M331 335l1 -73q0 -127 99 -129q91 1 102 108l4 60v32h259v-42q0 -35 -6 -71q-43 -241 -361 -240q-139 0 -227 47q-95 51 -118 192q-13 70 -12 143v200q-1 60 5 124q14 171 97.5 242.5t252.5 73.5q222 -2 297 -97q69 -88 72 -310v-153h-465v-107zM331 595h206v80l-2 72
q-10 99 -99 102q-88 2 -101 -111l-4 -63v-80zM641 23l-42 -33q-69 -55 -68 -107q-3 -67 103 -72h47v-141l-31 -5l-52 -2q-223 4 -220 170q1 73 65 139q24 26 45 39l21 12h132z" />
    <glyph glyph-name="Ecaron" unicode="&#x11a;" horiz-adv-x="944" 
d="M841 1410v-212h-418v-368h403v-212h-403v-406h430v-212h-717v1410h705zM645 1530h-287l-119 317h168l94 -183v0l94 183h169zM495 1410z" />
    <glyph glyph-name="ecaron" unicode="&#x11b;" horiz-adv-x="868" 
d="M331 335l1 -73q0 -127 99 -129q91 1 102 108l4 60v32h259v-42q0 -35 -6 -71q-43 -241 -361 -240q-139 0 -227 47q-95 51 -118 192q-13 70 -12 143v200q-1 60 5 124q14 171 97.5 242.5t252.5 73.5q222 -2 297 -97q69 -88 72 -310v-153h-465v-107zM331 595h206v80l-2 72
q-10 99 -99 102q-88 2 -101 -111l-4 -63v-80zM587 1104h-287l-119 317h168l94 -183v0l94 183h169zM437 984z" />
    <glyph glyph-name="Gbreve" unicode="&#x11e;" horiz-adv-x="1133" 
d="M721 1026q0 47 -8 85q-21 107 -140 107q-128 0 -151 -142q-12 -75 -11 -229v-240l4 -192q2 -110 32 -157q41 -65 141 -66q37 0 74 8l59 16v320h-136v212h423v-714q-287 -55 -445 -54q-108 0 -196 26q-172 49 -219 250q-25 103 -24 350v241q-1 141 20 260q52 319 443 323
q101 0 189 -23q179 -47 219 -245q13 -64 13 -125v-60h-287v49zM480 1847v-30l4 -50q12 -105 95 -104q82 -2 95 104l4 50v30h177l-1 -62q-2 -50 -17 -95q-34 -107 -135 -140q-59 -21 -123 -20q-65 -1 -123 20q-142 47 -152 235l-1 62h177z" />
    <glyph glyph-name="gbreve" unicode="&#x11f;" horiz-adv-x="906" 
d="M812 -31q0 -82 -17 -153q-35 -143 -176 -181q-84 -24 -179 -23q-151 -2 -244 49q-102 56 -101 216v38h259v-22q-4 -131 89 -132q74 -2 87 76q8 46 9 128v140l-42 -44q-68 -62 -175 -61q-186 -1 -218 166q-11 48 -13 107l-3 91v252v79q13 306 249 307q63 0 117 -27
q32 -16 55 -38l44 -49v94h259v-1013zM347 368l2 -56q5 -137 89 -138q68 -2 86 66q7 27 11 65l4 57v256l-4 65q-3 50 -12 83q-17 61 -79 62q-83 2 -94 -135l-3 -75v-250zM358 1421v-30l4 -50q12 -105 95 -104q82 -2 95 104l4 50v30h177l-1 -62q-2 -50 -17 -95
q-34 -107 -135 -140q-59 -21 -123 -20q-65 -1 -123 20q-142 47 -152 235l-1 62h177z" />
    <glyph glyph-name="Idotaccent" unicode="&#x130;" horiz-adv-x="529" 
d="M411 1410v-1410h-287v1410h287zM134 1783h259v-240h-259v240z" />
    <glyph glyph-name="dotlessi" unicode="&#x131;" horiz-adv-x="491" 
d="M375 982v-982h-259v982h259z" />
    <glyph glyph-name="Lacute" unicode="&#x139;" horiz-adv-x="868" 
d="M141 1410h287v-1198h371v-212h-658v1410zM432 1847h287l-192 -317h-214z" />
    <glyph glyph-name="lacute" unicode="&#x13a;" horiz-adv-x="491" 
d="M375 1412v-1412h-259v1412h259zM249 1845h287l-192 -317h-214z" />
    <glyph glyph-name="Lcaron" unicode="&#x13d;" horiz-adv-x="868" 
d="M141 1410h287v-1198h371v-212h-658v1410zM700 1068h-134l40 344h192z" />
    <glyph glyph-name="lcaron" unicode="&#x13e;" horiz-adv-x="680" 
d="M375 1412v-1412h-259v1412h259zM601 1068h-134l40 344h192z" />
    <glyph glyph-name="Ldot" unicode="&#x13f;" horiz-adv-x="868" 
d="M141 1410h287v-1198h371v-212h-658v1410zM596 867h259v-240h-259v240z" />
    <glyph glyph-name="ldot" unicode="&#x140;" horiz-adv-x="718" 
d="M375 1412v-1412h-259v1412h259zM478 892h259v-240h-259v240z" />
    <glyph glyph-name="Lslash" unicode="&#x141;" horiz-adv-x="906" 
d="M163 495v0l-141 -146v294l141 145v0v622h287v-325v0l181 187v-297l-181 -186v0v-577h372v-212h-659v495z" />
    <glyph glyph-name="lslash" unicode="&#x142;" horiz-adv-x="529" 
d="M397 1412v-336v0l124 148v-299l-124 -139v0v-786h-259v480v0l-124 -154v289l124 153v0v644h259z" />
    <glyph glyph-name="Nacute" unicode="&#x143;" horiz-adv-x="1171" 
d="M553 1410l250 -1211v0v1211h237v-1410h-424l-250 1208v0v-1208h-237v1410h424zM624 1847h287l-192 -317h-214z" />
    <glyph glyph-name="nacute" unicode="&#x144;" horiz-adv-x="944" 
d="M363 982v-94l47 47q36 32 86 49.5t102 17.5q238 3 234 -272v-96v-634h-259v638v53l-2 60q-11 74 -90 77q-106 0 -112 -140l-2 -51v-637h-259v982h255zM460 1421h287l-192 -317h-214z" />
    <glyph glyph-name="Ncaron" unicode="&#x147;" horiz-adv-x="1171" 
d="M553 1410l250 -1211v0v1211h237v-1410h-424l-250 1208v0v-1208h-237v1410h424zM759 1530h-287l-119 317h168l94 -183v0l94 183h169zM609 1410z" />
    <glyph glyph-name="ncaron" unicode="&#x148;" horiz-adv-x="944" 
d="M363 982v-94l47 47q36 32 86 49.5t102 17.5q238 3 234 -272v-96v-634h-259v638v53l-2 60q-11 74 -90 77q-106 0 -112 -140l-2 -51v-637h-259v982h255zM625 1104h-287l-119 317h168l94 -183v0l94 183h169zM475 984z" />
    <glyph glyph-name="Odblacute" unicode="&#x150;" horiz-adv-x="1133" 
d="M125 881q0 177 5 241q7 105 73 178q68 77 169 105q91 25 188 25q269 -2 370 -130q66 -83 73 -178q4 -64 5 -241v-352q-1 -296 -72 -402q-98 -146 -369 -147q-193 0 -305.5 78t-128.5 279q-9 89 -8 192v352zM412 530l3 -140q7 -198 152 -198q105 1 133 92q15 47 18 106
l3 140v350l-3 140q-8 198 -156 198q-141 2 -147 -198l-3 -140v-350zM418 1847h287l-192 -317h-214zM783 1847h286l-193 -317h-213z" />
    <glyph glyph-name="odblacute" unicode="&#x151;" horiz-adv-x="906" 
d="M815 405l-1 -84q-7 -176 -77 -246q-52 -55 -123 -74q-75 -22 -154 -21q-187 1 -274.5 77.5t-93.5 263.5l-1 84v173l1 84q6 184 90 259q93 82 266 81q185 -2 272 -78t94 -262l1 -84v-173zM350 365v-49l2 -68q9 -115 105 -115q86 -3 96 115l3 68v49v251v50l-3 68
q-9 113 -100 115q-93 -2 -101 -115l-2 -68v-50v-251zM300 1421h287l-192 -317h-214zM665 1421h286l-193 -317h-213z" />
    <glyph glyph-name="OE" unicode="&#x152;" horiz-adv-x="1586" 
d="M1481 1198h-423v-365h404v-212h-404v-409h437v-212h-489l-205 -5l-141 -5q-148 0 -229 14q-132 22 -203.5 100t-91.5 206q-12 77 -12 229v299q0 329 80 439q104 142 413 143l175 -5l216 -5h473v-212zM771 1201l-35 4l-69 3q-139 -1 -192 -56q-56 -58 -61 -190l-3 -129
v-296q-1 -84 5 -142q15 -191 251 -193q41 -1 78 5l26 4v990z" />
    <glyph glyph-name="oe" unicode="&#x153;" horiz-adv-x="1360" 
d="M813 442v-79v-75q1 -44 9 -79q15 -75 89 -76q83 1 94 105l2 48v52h259v-39l-2 -49q-5 -60 -17 -100q-51 -171 -309 -170q-183 1 -239 112l-16 38v0l-23 -39l-22 -30q-71 -80 -225 -81q-189 0 -262 106q-64 93 -63 283v229q-1 87 8 153q31 248 313 251q196 -1 255 -119
l18 -39v0l20 39q72 116 248 119q188 -3 257 -103q49 -70 55 -159q4 -56 4 -149v-149h-453zM347 378l3 -87q4 -156 97 -158q79 0 96 80q8 33 9 78l2 89v219l-4 100q-2 41 -11 74q-20 76 -92 76q-96 -2 -99 -154l-1 -93v-224zM813 595h194v59v43q-4 150 -92 152
q-73 -1 -92 -81q-10 -36 -10 -74v-42v-57z" />
    <glyph glyph-name="Racute" unicode="&#x154;" horiz-adv-x="1058" 
d="M519 1410q232 -2 322 -71q115 -87 117 -302q0 -84 -19 -157q-32 -124 -139 -167q-32 -14 -74 -25v0q51 -11 89 -24q146 -49 145 -273v-232q-1 -46 2.5 -76t17.5 -83h-289l-11 71q-8 52 -7 88v232q-1 155 -107 177q-35 6 -71 7h-87v-575h-287v1410h398zM408 1198v-411h87
q92 1 135 42q39 39 41 165q0 48 -9 93q-19 93 -105 106q-29 5 -64 5h-85zM520 1847h287l-192 -317h-214z" />
    <glyph glyph-name="racute" unicode="&#x155;" horiz-adv-x="680" 
d="M352 982v-132l17 31q62 103 195 117l58 4v-223l-23 3l-41 2q-158 3 -180 -115q-9 -34 -9 -79l-2 -59v-531h-259v982h244zM351 1421h287l-192 -317h-214z" />
    <glyph glyph-name="Rcaron" unicode="&#x158;" horiz-adv-x="1058" 
d="M519 1410q232 -2 322 -71q115 -87 117 -302q0 -84 -19 -157q-32 -124 -139 -167q-32 -14 -74 -25v0q51 -11 89 -24q146 -49 145 -273v-232q-1 -46 2.5 -76t17.5 -83h-289l-11 71q-8 52 -7 88v232q-1 155 -107 177q-35 6 -71 7h-87v-575h-287v1410h398zM408 1198v-411h87
q92 1 135 42q39 39 41 165q0 48 -9 93q-19 93 -105 106q-29 5 -64 5h-85zM678 1530h-287l-119 317h168l94 -183v0l94 183h169zM528 1410z" />
    <glyph glyph-name="rcaron" unicode="&#x159;" horiz-adv-x="680" 
d="M352 982v-132l17 31q62 103 195 117l58 4v-223l-23 3l-41 2q-158 3 -180 -115q-9 -34 -9 -79l-2 -59v-531h-259v982h244zM510 1104h-287l-119 317h168l94 -183v0l94 183h169zM360 984z" />
    <glyph glyph-name="Sacute" unicode="&#x15a;" horiz-adv-x="1095" 
d="M388 445v-52q-4 -200 153 -201q128 -1 155 112q8 30 8 64q0 47 -18 81q-16 28 -47 53l-43 29l-242 142q-66 38 -117 81q-62 51 -87 109q-31 70 -31 171q0 395 439 396q359 0 404 -253q12 -67 12 -141v-59h-287v47q-1 45 -6 86q-13 109 -132 108q-138 2 -143 -152
q-1 -56 20 -88q19 -29 69 -65l60 -39l238 -141q47 -29 88 -63q58 -51 81 -106q29 -71 29 -174q1 -307 -237 -379q-100 -32 -219 -31q-113 -1 -210 28q-184 52 -213 239q-12 66 -11 148v50h287zM564 1847h287l-192 -317h-214z" />
    <glyph glyph-name="sacute" unicode="&#x15b;" horiz-adv-x="831" 
d="M317 326v-49q1 -75 12 -97q23 -47 81 -47q101 1 99 117q-1 25 -6 46q-15 51 -82 86l-107 54l-108 54q-45 22 -75 55q-68 70 -67 179q1 215 196 261q72 17 149 17q341 0 340 -282v-35h-259v57q2 106 -82 107q-83 2 -85 -92q0 -37 13 -62q14 -28 38 -43q36 -25 106 -54
q128 -57 205 -116q39 -33 59 -81q24 -59 24 -125q0 -74 -23 -131q-62 -165 -336 -165q-350 -2 -351 271v75h259zM404 1421h287l-192 -317h-214z" />
    <glyph glyph-name="Scedilla" unicode="&#x15e;" horiz-adv-x="1095" 
d="M388 445v-52q-4 -200 153 -201q128 -1 155 112q8 30 8 64q0 47 -18 81q-16 28 -47 53l-43 29l-242 142q-66 38 -117 81q-62 51 -87 109q-31 70 -31 171q0 395 439 396q359 0 404 -253q12 -67 12 -141v-59h-287v47q-1 45 -6 86q-13 109 -132 108q-138 2 -143 -152
q-1 -56 20 -88q19 -29 69 -65l60 -39l238 -141q47 -29 88 -63q58 -51 81 -106q29 -71 29 -174q1 -307 -237 -379q-100 -32 -219 -31q-113 -1 -210 28q-184 52 -213 239q-12 66 -11 148v50h287zM293 -404l169 299h185l-102 -299h-252z" />
    <glyph glyph-name="scedilla" unicode="&#x15f;" horiz-adv-x="831" 
d="M317 326v-49q1 -75 12 -97q23 -47 81 -47q101 1 99 117q-1 25 -6 46q-15 51 -82 86l-107 54l-108 54q-45 22 -75 55q-68 70 -67 179q1 215 196 261q72 17 149 17q341 0 340 -282v-35h-259v57q2 106 -82 107q-83 2 -85 -92q0 -37 13 -62q14 -28 38 -43q36 -25 106 -54
q128 -57 205 -116q39 -33 59 -81q24 -59 24 -125q0 -74 -23 -131q-62 -165 -336 -165q-350 -2 -351 271v75h259zM173 -404l169 299h185l-102 -299h-252z" />
    <glyph glyph-name="Scaron" unicode="&#x160;" horiz-adv-x="1095" 
d="M388 445v-52q-4 -200 153 -201q128 -1 155 112q8 30 8 64q0 47 -18 81q-16 28 -47 53l-43 29l-242 142q-66 38 -117 81q-62 51 -87 109q-31 70 -31 171q0 395 439 396q359 0 404 -253q12 -67 12 -141v-59h-287v47q-1 45 -6 86q-13 109 -132 108q-138 2 -143 -152
q-1 -56 20 -88q19 -29 69 -65l60 -39l238 -141q47 -29 88 -63q58 -51 81 -106q29 -71 29 -174q1 -307 -237 -379q-100 -32 -219 -31q-113 -1 -210 28q-184 52 -213 239q-12 66 -11 148v50h287zM697 1530h-287l-119 317h168l94 -183v0l94 183h169zM547 1410z" />
    <glyph glyph-name="scaron" unicode="&#x161;" horiz-adv-x="831" 
d="M317 326v-49q1 -75 12 -97q23 -47 81 -47q101 1 99 117q-1 25 -6 46q-15 51 -82 86l-107 54l-108 54q-45 22 -75 55q-68 70 -67 179q1 215 196 261q72 17 149 17q341 0 340 -282v-35h-259v57q2 106 -82 107q-83 2 -85 -92q0 -37 13 -62q14 -28 38 -43q36 -25 106 -54
q128 -57 205 -116q39 -33 59 -81q24 -59 24 -125q0 -74 -23 -131q-62 -165 -336 -165q-350 -2 -351 271v75h259zM569 1104h-287l-119 317h168l94 -183v0l94 183h169zM419 984z" />
    <glyph glyph-name="Tcedilla" unicode="&#x162;" horiz-adv-x="1020" 
d="M59 1410h901v-212h-307v-1198h-287v1198h-307v212zM272 -434l169 299h185l-102 -299h-252z" />
    <glyph glyph-name="tcedilla" unicode="&#x163;" horiz-adv-x="642" 
d="M156 982v160l259 108v-268h149v-174h-149v-514v-43q1 -55 19 -76.5t73 -20.5l50 6l23 4v-174l-59 -6q-47 -5 -95 -4q-72 -1 -130 16q-138 36 -140 231v68v513h-136v174h136zM149 -404l169 299h185l-102 -299h-252z" />
    <glyph glyph-name="Tcaron" unicode="&#x164;" horiz-adv-x="1020" 
d="M59 1410h901v-212h-307v-1198h-287v1198h-307v212zM659 1530h-287l-119 317h168l94 -183v0l94 183h169zM509 1410z" />
    <glyph glyph-name="tcaron" unicode="&#x165;" horiz-adv-x="755" 
d="M156 982v160l259 108v-268h149v-174h-149v-514v-43q1 -55 19 -76.5t73 -20.5l50 6l23 4v-174l-59 -6q-47 -5 -95 -4q-72 -1 -130 16q-138 36 -140 231v68v513h-136v174h136zM678 1068h-134l40 344h192z" />
    <glyph glyph-name="Uring" unicode="&#x16e;" horiz-adv-x="1133" 
d="M416 1410v-922l2 -106q1 -95 24 -133q35 -56 118 -57q87 -2 124 53q27 39 28 137l2 106v922h287v-915q-1 -287 -82 -387q-57 -72 -149.5 -100.5t-195.5 -27.5q-118 0 -214 29q-145 41 -201 196q-30 86 -30 290v915h287zM443 1879.5q59 58.5 145 59.5q86 -1 145 -60
t60 -144q-1 -87 -59.5 -146t-144.5 -59t-145 58.5t-60 145.5q0 87 59 145.5zM501 1734q0 -36 26 -61.5t62 -25.5q35 -1 61 26t26 63q-2 85 -88 86q-36 -1 -61.5 -27t-25.5 -61zM567 1410z" />
    <glyph glyph-name="uring" unicode="&#x16f;" horiz-adv-x="944" 
d="M369 982v-664l2 -63q3 -103 92 -101q65 -1 92 57q19 44 20 107v664h259v-982h-244v92l-38 -35q-93 -79 -201 -77q-238 4 -241 277v63v662h259zM342 1453.5q59 58.5 145 59.5q86 -1 145 -60t60 -144q-1 -87 -59.5 -146t-144.5 -59t-145 58.5t-60 145.5q0 87 59 145.5z
M400 1308q0 -36 26 -61.5t62 -25.5q35 -1 61 26t26 63q-2 85 -88 86q-36 -1 -61.5 -27t-25.5 -61zM466 984z" />
    <glyph glyph-name="Udblacute" unicode="&#x170;" horiz-adv-x="1133" 
d="M416 1410v-922l2 -106q1 -95 24 -133q35 -56 118 -57q87 -2 124 53q27 39 28 137l2 106v922h287v-915q-1 -287 -82 -387q-57 -72 -149.5 -100.5t-195.5 -27.5q-118 0 -214 29q-145 41 -201 196q-30 86 -30 290v915h287zM418 1847h287l-192 -317h-214zM783 1847h286
l-193 -317h-213z" />
    <glyph glyph-name="udblacute" unicode="&#x171;" horiz-adv-x="944" 
d="M369 982v-664l2 -63q3 -103 92 -101q65 -1 92 57q19 44 20 107v664h259v-982h-244v92l-38 -35q-93 -79 -201 -77q-238 4 -241 277v63v662h259zM319 1421h287l-192 -317h-214zM684 1421h286l-193 -317h-213z" />
    <glyph glyph-name="Ydieresis" unicode="&#x178;" horiz-adv-x="1058" 
d="M365 1410l162 -573v0l180 573h297l-332 -878v-532h-287v532l-332 878h312zM243 1774h231v-231h-231v231zM578 1774h231v-231h-231v231z" />
    <glyph glyph-name="Zacute" unicode="&#x179;" horiz-adv-x="944" 
d="M589 1198v0h-503v212h780v-267l-526 -931v0h539v-212h-813v267zM494 1847h287l-192 -317h-214z" />
    <glyph glyph-name="zacute" unicode="&#x17a;" horiz-adv-x="755" 
d="M429 808v0h-336v174h586v-208l-362 -600v0h373v-174h-625v226zM389 1421h287l-192 -317h-214z" />
    <glyph glyph-name="Zdot" unicode="&#x17b;" horiz-adv-x="944" 
d="M589 1198v0h-503v212h780v-267l-526 -931v0h539v-212h-813v267zM372 1783h259v-240h-259v240z" />
    <glyph glyph-name="zdot" unicode="&#x17c;" horiz-adv-x="755" 
d="M429 808v0h-336v174h586v-208l-362 -600v0h373v-174h-625v226zM271 1426h259v-240h-259v240z" />
    <glyph glyph-name="Zcaron" unicode="&#x17d;" horiz-adv-x="944" 
d="M589 1198v0h-503v212h780v-267l-526 -931v0h539v-212h-813v267zM621 1530h-287l-119 317h168l94 -183v0l94 183h169zM471 1410z" />
    <glyph glyph-name="zcaron" unicode="&#x17e;" horiz-adv-x="755" 
d="M429 808v0h-336v174h586v-208l-362 -600v0h373v-174h-625v226zM531 1104h-287l-119 317h168l94 -183v0l94 183h169zM381 984z" />
    <glyph glyph-name="florin" unicode="&#x192;" 
d="M322 808h-134l52 174h134l31 103l25 85q17 60 40 106q71 147 298 148q57 1 95 -5l63 -11l-48 -162l-55 4q-65 0 -95 -29q-22 -22 -41 -90l-19 -67l-24 -82h155l-52 -174h-155l-239 -808h-270z" />
    <glyph glyph-name="circumflex" unicode="&#x2c6;" 
d="M357 1421h287l119 -317h-169l-94 182v0l-94 -182h-168z" />
    <glyph glyph-name="caron" unicode="&#x2c7;" 
d="M644 1104h-287l-119 317h168l94 -183v0l94 183h169zM494 984z" />
    <glyph glyph-name="macron" unicode="&#x2c9;" 
d="M174 1368h661v-182h-661v182z" />
    <glyph glyph-name="breve" unicode="&#x2d8;" 
d="M396 1421v-30l4 -50q12 -105 95 -104q82 -2 95 104l4 50v30h177l-1 -62q-2 -50 -17 -95q-34 -107 -135 -140q-59 -21 -123 -20q-65 -1 -123 20q-142 47 -152 235l-1 62h177z" />
    <glyph glyph-name="dotaccent" unicode="&#x2d9;" 
d="M363 1426h259v-240h-259v240z" />
    <glyph glyph-name="ring" unicode="&#x2da;" 
d="M343 1453.5q59 58.5 145 59.5q86 -1 145 -60t60 -144q-1 -87 -59.5 -146t-144.5 -59t-145 58.5t-60 145.5q0 87 59 145.5zM401 1308q0 -36 26 -61.5t62 -25.5q35 -1 61 26t26 63q-2 85 -88 86q-36 -1 -61.5 -27t-25.5 -61zM467 984z" />
    <glyph glyph-name="ogonek" unicode="&#x2db;" 
d="M801 23l-42 -33q-69 -55 -68 -107q-3 -67 103 -72h47v-141l-31 -5l-52 -2q-223 4 -220 170q1 73 65 139q24 26 45 39l21 12h132z" />
    <glyph glyph-name="tilde" unicode="&#x2dc;" 
d="M250 1140l1 60q7 189 122 189q27 0 56 -10l40 -17l69 -36l29 -14q20 -11 32 -11q7 -1 14 5l10 12q5 10 6 26l1 24v21h152v-42l-2 -77q-2 -46 -16 -85q-26 -81 -106 -81q-31 0 -60 12l-35 17l-65 36l-31 15q-19 7 -32 8q-9 0 -15 -4l-10 -10q-5 -11 -7 -26l-1 -28v-20
h-152v36z" />
    <glyph glyph-name="hungarumlaut" unicode="&#x2dd;" 
d="M338 1421h287l-192 -317h-214zM703 1421h286l-193 -317h-213z" />
    <glyph glyph-name="pi" unicode="&#x3c0;" horiz-adv-x="1246" 
d="M218 794h-133l58 188h1169l-58 -188h-114l-237 -794h-285l238 794h-354l-235 -794h-290z" />
    <glyph glyph-name="endash" unicode="&#x2013;" 
d="M910 585v-176h-838v176h838z" />
    <glyph glyph-name="emdash" unicode="&#x2014;" horiz-adv-x="1360" 
d="M90 585h1179v-176h-1179v176z" />
    <glyph glyph-name="quoteleft" unicode="&#x2018;" horiz-adv-x="453" 
d="M204 1410h180l-56 -458h-256z" />
    <glyph glyph-name="quoteright" unicode="&#x2019;" horiz-adv-x="453" 
d="M267 952h-180l56 458h256z" />
    <glyph glyph-name="quotesinglbase" unicode="&#x201a;" horiz-adv-x="453" 
d="M241 -189h-180l56 458h256z" />
    <glyph glyph-name="quotedblleft" unicode="&#x201c;" horiz-adv-x="793" 
d="M200 1410h179l-56 -458h-256zM535 1410h180l-56 -458h-256z" />
    <glyph glyph-name="quotedblright" unicode="&#x201d;" horiz-adv-x="793" 
d="M262 952h-180l56 458h256zM598 952h-180l55 458h257z" />
    <glyph glyph-name="quotedblbase" unicode="&#x201e;" horiz-adv-x="793" 
d="M232 -189h-179l56 458h256zM569 -189h-180l55 458h257z" />
    <glyph glyph-name="dagger" unicode="&#x2020;" 
d="M140 1128h245v282h211v-282h245v-195h-245v-933h-211v933h-245v195z" />
    <glyph glyph-name="daggerdbl" unicode="&#x2021;" 
d="M141 477h245v456h-245v195h245v282h211v-282h245v-195h-245v-456h245v-195h-245v-282h-211v282h-245v195z" />
    <glyph glyph-name="bullet" unicode="&#x2022;" horiz-adv-x="1020" 
d="M249 993.5q109 107.5 260 107.5q150 1 261 -109q108 -108 108 -260q0 -99 -49.5 -185t-135.5 -135.5t-184 -48.5q-153 -1 -261 106.5t-108 262.5q0 154 109 261.5z" />
    <glyph glyph-name="ellipsis" unicode="&#x2026;" horiz-adv-x="1360" 
d="M110 250h238v-250h-238v250zM562 250h238v-250h-238v250zM1252 250v-250h-238v250h238z" />
    <glyph glyph-name="perthousand" unicode="&#x2030;" horiz-adv-x="2039" 
d="M973 1459h155l-665 -1529h-155zM857 477l3 110q11 169 232 172q225 -3 234 -172l2 -110v-195l-3 -112q-10 -136 -128 -166q-48 -14 -100 -13q-59 -1 -108 13q-90 21 -117 110q-16 50 -15 168v195zM1023 281l1 -83q5 -89 72 -90q59 -3 65 90l1 83v195l-1 79q-1 86 -68 87
q-63 -1 -69 -87l-1 -79v-195zM1459 477l3 110q12 169 232 172q219 -3 233 -172l3 -110v-195q0 -160 -36 -214q-53 -79 -196 -77q-151 -3 -202 74q-38 58 -37 217v195zM1625 281l1 -83q-1 -90 72 -90q58 -3 64 90l2 83v195l-2 79q-8 85 -68 87q-68 -3 -68 -87l-1 -79v-195z
M111 1153l3 110q11 169 234 172q218 -3 232 -172l3 -110v-195q0 -117 -15 -168q-27 -87 -117 -110q-49 -14 -100 -13q-59 -1 -108 13q-90 23 -117 110q-16 50 -15 168v195zM277 958l1 -84q5 -90 70 -90q63 0 68 90l1 84v195l-1 78q-1 86 -69 87q-63 -1 -69 -87l-1 -78v-195z
" />
    <glyph glyph-name="guilsinglleft" unicode="&#x2039;" horiz-adv-x="491" 
d="M225 850h223l-142 -358l142 -380h-203l-177 380z" />
    <glyph glyph-name="guilsinglright" unicode="&#x203a;" horiz-adv-x="491" 
d="M282 860l167 -368l-176 -368h-204l145 368l-145 368h213z" />
    <glyph glyph-name="franc" unicode="&#x20a3;" horiz-adv-x="1511" 
d="M812 1410v-212h-391v-379h370v-212h-370v-607h-287v1410h678zM1186 982v-132l17 31q62 103 195 117l58 4v-223l-23 3l-41 2q-158 3 -180 -115q-9 -34 -9 -79l-2 -59v-531h-259v982h244z" />
    <glyph glyph-name="trademark" unicode="&#x2122;" horiz-adv-x="1246" 
d="M453 1388v-89h-152v-518h-89v518h-152v89h393zM521 1388h163l111 -479v0l107 479h163v-607h-89v547h-7l-122 -547h-108l-122 547h-7v-547h-89v607z" />
    <glyph glyph-name="Omega" unicode="&#x2126;" horiz-adv-x="1662" 
d="M117 253h325q-92 57 -135 100q-85 80 -126 211q-34 104 -33 218q2 303 193 486q176 168 497 170q309 1 487 -173q189 -184 190 -482q0 -121 -37.5 -231.5t-98.5 -176.5q-47 -50 -162 -122h327v-253h-636v253q76 43 116 76q190 150 192 432q0 186 -97 317
q-108 148 -288 150q-174 -1 -287 -149q-97 -126 -97 -314q-2 -339 308 -512v-253h-638v253z" />
    <glyph glyph-name="partialdiff" unicode="&#x2202;" 
d="M136 1036q17 182 123 280q117 109 287 108q217 -1 323 -161q50 -75 71 -161q33 -138 34 -296q-1 -272 -76 -463q-100 -254 -309 -336q-89 -36 -197 -35q-188 1 -298 99q-125 112 -126 284q-1 98 44 182q67 127 185 214q178 132 444 211l54 15l-5 32q-37 216 -192 217
q-165 -2 -181 -243h-185zM697 802l-55 -23q-75 -32 -127 -60q-269 -144 -268 -359q3 -189 147 -190q117 1 192 134q37 64 60 140q49 154 52 307v0z" />
    <glyph glyph-name="Delta" unicode="&#x2206;" horiz-adv-x="1511" 
d="M568 1410h375l527 -1410h-1429zM426 229v0h642v0l-319 962v0z" />
    <glyph glyph-name="product" unicode="&#x220f;" horiz-adv-x="1662" 
d="M1435 1410v-1410h-292v1177h-625v-1177h-292v1410h1209z" />
    <glyph glyph-name="summation" unicode="&#x2211;" horiz-adv-x="2039" 
d="M1022 510l-586 665v218h1182v-199h-919v0l602 -684l-624 -712v0h941v-199h-1198v212z" />
    <glyph glyph-name="minus" unicode="&#x2212;" horiz-adv-x="1360" 
d="M1144 602v-147h-932v147h932z" />
    <glyph glyph-name="fraction" unicode="&#x2215;" horiz-adv-x="227" 
d="M363 1459h155l-665 -1529h-155z" />
    <glyph glyph-name="radical" unicode="&#x221a;" horiz-adv-x="1473" 
d="M1342 1550h384v-86h-282v0l-556 -1825h-75l-571 824l-146 -106l-44 97l299 195l509 -753v0z" />
    <glyph glyph-name="infinity" unicode="&#x221e;" horiz-adv-x="2039" 
d="M1058 753q76 96 176 136q63 25 136 25q156 -1 264 -105q53 -50 82 -116q32 -72 32 -149q-1 -154 -112 -264q-107 -106 -266 -106q-72 -1 -136 23.5t-114 70.5q-34 29 -62 67l-38 53l-38 -53q-29 -38 -62 -67q-51 -46 -116 -70.5t-135 -23.5q-160 0 -266 106
q-113 112 -112 264q-1 78 32 149q29 65 83 116q109 104 263 105q71 0 136 -25q100 -39 177 -136l38 -53zM921 545l-29 44q-103 159 -220 159q-82 1 -149 -58.5t-66 -146.5q2 -92 63.5 -147.5t147.5 -55.5q80 -2 140 49q34 28 91 121zM1113 544l42 -65q91 -138 217 -139
q87 1 148 59t62 144q-1 85 -62.5 144t-148.5 61q-83 -2 -144 -53q-34 -28 -95 -122z" />
    <glyph glyph-name="integral" unicode="&#x222b;" horiz-adv-x="2039" 
d="M486 -136l48 -7l65 -3q154 1 241.5 64.5t94.5 229.5l3 183v614q0 243 34 403q52 236 220 327q51 28 122 43q61 13 122 13q43 -1 95 -7l21 -3v-171l-46 6l-58 4q-43 0 -97 -14q-59 -15 -96 -38q-156 -96 -155 -543v-509l-4 -281q-6 -260 -127 -370q-132 -121 -374 -122
q-44 -1 -73 4l-36 6v171z" />
    <glyph glyph-name="approxequal" unicode="&#x2248;" horiz-adv-x="2039" 
d="M410 397q87 131 174 172q79 38 179 38q101 0 262 -75.5t260 -74.5q120 -2 224 86l31 28l125 -95q-52 -61 -92 -97q-56 -53 -136 -80q-67 -24 -136 -24q-96 0 -192 37l-126 52q-144 60 -224 61q-157 -2 -247 -148l-132 72zM410 693q87 131 174 172q79 38 179 38
q101 0 262 -75.5t260 -74.5q120 -2 224 86l31 28l125 -95q-52 -61 -92 -97q-56 -53 -136 -80q-67 -24 -136 -24q-96 0 -192 37l-126 52q-144 60 -224 61q-157 -2 -247 -148l-132 72z" />
    <glyph glyph-name="notequal" unicode="&#x2260;" horiz-adv-x="2039" 
d="M1176 846v0l308 365h209l-306 -365v0h286v-166h-426v0l-202 -239v0h628v-166h-767v0l-308 -365h-211l307 365v0h-292v166h431v0l203 239v0h-634v166h774z" />
    <glyph glyph-name="lessequal" unicode="&#x2264;" horiz-adv-x="2039" 
d="M1686 159v-159h-1271v159h1271zM1686 1145v-171l-883 -283l883 -288v-174l-1271 411v105z" />
    <glyph glyph-name="greaterequal" unicode="&#x2265;" horiz-adv-x="2039" 
d="M1623 159v-159h-1271v159h1271zM1623 733v-105l-1271 -399v167l881 285l-881 290v174z" />
    <glyph glyph-name="lozenge" unicode="&#x25ca;" horiz-adv-x="2039" 
d="M1019 1387l635 -705l-635 -705l-635 705zM494 682l525 -595l525 595l-525 595z" />
    <glyph glyph-name="apple" unicode="&#xf000;" horiz-adv-x="1020" 
d="M75 0v1457h870v-1457h-870zM331 256h358v945h-358v-945z" />
    <glyph glyph-name="fi" unicode="&#xf001;" horiz-adv-x="1095" 
d="M182 982v114v80q5 144 61 194q60 55 199 54l97 -4l51 -5v-165h-50q-95 1 -98 -92l-1 -60v-116h149v-174h-149v-808h-259v808h-136v174h136zM721 982h259v-982h-259v982zM980 1412v-240h-259v240h259z" />
    <glyph glyph-name="fl" unicode="&#xf002;" horiz-adv-x="1095" 
d="M182 982v115v79q5 144 61 194q60 55 199 54l100 -4l48 -4v-166h-50q-94 1 -98 -91l-1 -60v-117h149v-174h-149v-808h-259v808h-136v174h136zM980 1412v-1412h-259v1412h259z" />
    <glyph glyph-name="middot" unicode="&#xf004;" 
d="M508 1068h-134l40 344h192z" />
    </font>
</defs>
</svg>
